<svg width="11" height="20" viewBox="0 0 11 20" fill="none" xmlns="http://www.w3.org/2000/svg">
<path d="M10.586 0.004L7.947 0C4.983 0 3.067 1.932 3.067 4.922V7.192H0.416C0.362026 7.19134 0.30845 7.20132 0.258332 7.22136C0.208214 7.24141 0.162536 7.27113 0.123906 7.30883C0.0852759 7.34654 0.0544508 7.39148 0.0331909 7.44109C0.0119309 7.49071 0.000652629 7.54403 0 7.598L0 10.887C0 11.112 0.186 11.294 0.415 11.294H3.068V19.591C3.06826 19.6451 3.07922 19.6986 3.10026 19.7484C3.12129 19.7983 3.15198 19.8435 3.19056 19.8814C3.22913 19.9193 3.27484 19.9492 3.32503 19.9694C3.37522 19.9896 3.42891 19.9997 3.483 19.999H6.943C7.173 19.999 7.359 19.816 7.359 19.591V11.294H10.46C10.514 11.2947 10.5676 11.2846 10.6177 11.2645C10.6679 11.2444 10.7135 11.2146 10.7521 11.1768C10.7907 11.1389 10.8214 11.0939 10.8425 11.0441C10.8635 10.9944 10.8746 10.941 10.875 10.887L10.876 7.598C10.8759 7.54437 10.8652 7.4913 10.8444 7.44186C10.8236 7.39243 10.7932 7.3476 10.755 7.31C10.6765 7.23298 10.5709 7.18988 10.461 7.19H7.36V5.268C7.36 4.343 7.584 3.874 8.809 3.874L10.586 3.873C10.64 3.8734 10.6935 3.86316 10.7435 3.84287C10.7935 3.82258 10.8391 3.79263 10.8775 3.75475C10.9159 3.71686 10.9466 3.67177 10.9676 3.62206C10.9886 3.57234 10.9996 3.51897 11 3.465V0.412C10.9996 0.358026 10.9886 0.304658 10.9676 0.254944C10.9466 0.205229 10.9159 0.160141 10.8775 0.122255C10.8391 0.084368 10.7935 0.0544247 10.7435 0.0341345C10.6935 0.0138443 10.64 0.00360459 10.586 0.004Z" fill="#286FF8"/>
</svg>
