<svg width="18" height="18" viewBox="0 0 18 18" fill="none" xmlns="http://www.w3.org/2000/svg">
<path d="M5.96901 0.477492C3.82701 1.23049 1.97501 2.85149 0.933011 4.87749C0.586011 5.57149 0.296011 6.32349 0.180011 7.13349C-0.224989 9.04349 0.0650114 11.1275 0.933011 12.8635C1.50965 14.019 2.34083 15.0286 3.36401 15.8165C4.30951 16.5928 5.41752 17.1465 6.60601 17.4365C8.08263 17.8317 9.63457 17.852 11.121 17.4955C12.4879 17.2027 13.7489 16.5423 14.768 15.5855C15.868 14.6005 16.62 13.3275 17.025 11.8805C17.488 10.3755 17.546 8.75449 17.257 7.19149H8.92101V10.6645H13.726C13.632 11.2176 13.4239 11.7452 13.1149 12.2135C12.8058 12.6818 12.4026 13.0806 11.931 13.3845C11.352 13.7905 10.658 14.0225 9.96301 14.1375C9.25371 14.2533 8.53031 14.2533 7.82101 14.1375C7.12701 14.0225 6.43201 13.6745 5.85301 13.2695C4.89881 12.6084 4.18724 11.653 3.82701 10.5495C3.42201 9.44949 3.42201 8.23349 3.82701 7.07549C4.11701 6.32349 4.52201 5.57049 5.10101 4.99149C5.80263 4.22641 6.7394 3.71721 7.76301 3.54449C8.63201 3.37149 9.50001 3.37149 10.368 3.66049C11.0703 3.89916 11.7191 4.27284 12.278 4.76049L13.899 3.13949L14.768 2.27149C13.9421 1.50232 12.98 0.893919 11.931 0.477492C9.99467 -0.159164 7.90536 -0.159164 5.96901 0.477492Z" fill="white"/>
<path d="M5.96911 0.477512C7.87911 -0.159488 10.0211 -0.159488 11.9311 0.535512C12.9731 0.940512 13.9571 1.51951 14.7671 2.32951L13.8991 3.19851L12.2791 4.81851C11.7503 4.29026 11.0914 3.91083 10.3691 3.71851C9.52137 3.47703 8.62882 3.43764 7.7631 3.60351C6.7791 3.83451 5.85311 4.35551 5.10111 5.05051C4.5173 5.63441 4.08063 6.34871 3.82711 7.13451C2.84311 6.38151 1.91711 5.62951 0.933105 4.87651C1.97511 2.85051 3.82711 1.23051 5.96911 0.477512Z" fill="#EA4335"/>
<path d="M0.180011 7.1345C0.354011 6.3825 0.586011 5.6295 0.933011 4.8775C1.91701 5.6295 2.84301 6.3825 3.82701 7.1345C3.42201 8.2345 3.42201 9.4505 3.82701 10.6075C2.84301 11.3605 1.91701 12.1125 0.933011 12.8655C0.0650114 11.0705 -0.224989 9.0455 0.180011 7.1355V7.1345Z" fill="#FBBC05"/>
<path d="M8.86304 7.19348H17.199C17.489 8.75548 17.431 10.3765 16.967 11.8815C16.5585 13.2954 15.7793 14.5742 14.71 15.5855C13.784 14.8335 12.858 14.1385 11.873 13.3855C12.7977 12.7422 13.4402 11.7686 13.668 10.6655H8.86304V7.19348Z" fill="#4285F4"/>
<path d="M0.933105 12.8655C1.91711 12.1125 2.84311 11.3605 3.82711 10.6075C4.18734 11.711 4.8989 12.6663 5.85311 13.3275C6.43211 13.7335 7.12711 14.0225 7.82111 14.1965C8.51611 14.3125 9.21111 14.3125 9.96311 14.1965C10.6581 14.0805 11.3531 13.7915 11.9311 13.4445C12.8571 14.1965 13.7831 14.8915 14.7671 15.6445C13.7264 16.5699 12.4744 17.2258 11.1211 17.5545C9.61611 17.9015 8.05311 17.9015 6.60611 17.4965C5.44811 17.2065 4.34811 16.6275 3.36411 15.8755C2.38011 15.0065 1.51211 13.9655 0.933105 12.8655Z" fill="#34A853"/>
</svg>
