<svg width="542" height="387" viewBox="0 0 542 387" fill="none" xmlns="http://www.w3.org/2000/svg">
<path fillRule="evenodd" clipRule="evenodd" d="M277.724 96.9791V96.4796H160.48C158.988 96.4776 157.78 95.2698 157.777 93.7773V25.508C157.78 24.0155 158.988 22.8078 160.48 22.8048H277.724C279.217 22.8078 280.425 24.0155 280.428 25.508V93.7773C280.425 95.2698 279.217 96.4776 277.724 96.4796V97.4786C279.769 97.4786 281.427 95.8222 281.427 93.7773V25.508C281.427 23.4631 279.769 21.8068 277.724 21.8058H160.48C158.435 21.8068 156.777 23.4631 156.777 25.508V93.7773C156.777 95.8222 158.435 97.4786 160.48 97.4786H277.724V96.9791Z" fill="#BBC5CC"/>
<path fillRule="evenodd" clipRule="evenodd" d="M157.277 36.336H280.928V35.337H157.277V36.336Z" fill="#BBC5CC"/>
<path fillRule="evenodd" clipRule="evenodd" d="M167.239 29.1453H166.74C166.738 29.9604 166.078 30.6208 165.263 30.6218C164.448 30.6208 163.787 29.9604 163.786 29.1453C163.787 28.3301 164.448 27.6708 165.263 27.6688C166.078 27.6708 166.738 28.3301 166.74 29.1453H167.739C167.738 27.7777 166.631 26.6698 165.263 26.6698C163.895 26.6698 162.787 27.7777 162.787 29.1453C162.787 30.5129 163.895 31.6207 165.263 31.6207C166.631 31.6207 167.738 30.5129 167.739 29.1453H167.239Z" fill="#BBC5CC"/>
<path fillRule="evenodd" clipRule="evenodd" d="M175.37 29.1453H174.871C174.869 29.9604 174.209 30.6208 173.394 30.6218C172.579 30.6208 171.918 29.9604 171.917 29.1453C171.918 28.3301 172.579 27.6708 173.394 27.6688C174.209 27.6708 174.869 28.3301 174.871 29.1453H175.87C175.869 27.7777 174.762 26.6698 173.394 26.6698C172.026 26.6698 170.918 27.7777 170.918 29.1453C170.918 30.5129 172.026 31.6207 173.394 31.6207C174.762 31.6207 175.869 30.5129 175.87 29.1453H175.37Z" fill="#BBC5CC"/>
<path fillRule="evenodd" clipRule="evenodd" d="M183.503 29.1453H183.004C183.002 29.9604 182.342 30.6208 181.527 30.6218C180.711 30.6208 180.051 29.9604 180.05 29.1453C180.051 28.3301 180.711 27.6708 181.527 27.6688C182.342 27.6708 183.002 28.3301 183.004 29.1453H184.003C184.003 27.7777 182.895 26.6698 181.527 26.6698C180.159 26.6698 179.051 27.7777 179.051 29.1453C179.051 30.5129 180.159 31.6207 181.527 31.6207C182.895 31.6207 184.003 30.5129 184.003 29.1453H183.503Z" fill="#BBC5CC"/>
<path fillRule="evenodd" clipRule="evenodd" d="M92.4093 104.791V105.291H121.649C124.751 105.291 127.264 102.778 127.265 99.6773V70.4431C127.264 67.3423 124.751 64.8299 121.649 64.8289H92.4093C89.3088 64.8299 86.7949 67.3423 86.7949 70.4431V99.6773C86.7949 102.778 89.3088 105.291 92.4093 105.291V104.292C91.1333 104.292 89.9823 103.776 89.146 102.94C88.3097 102.104 87.7941 100.953 87.7941 99.6773V70.4431C87.7941 69.1674 88.3097 68.0166 89.146 67.1805C89.9823 66.3443 91.1333 65.8288 92.4093 65.8278H121.649C122.925 65.8288 124.076 66.3443 124.913 67.1805C125.749 68.0166 126.264 69.1674 126.265 70.4431V99.6773C126.264 100.953 125.749 102.104 124.913 102.94C124.076 103.776 122.925 104.292 121.649 104.292H92.4093V104.791Z" fill="#BBC5CC"/>
<path fillRule="evenodd" clipRule="evenodd" d="M118.334 85.0602H116.835C116.834 87.7724 115.74 90.2139 113.962 91.9921C112.184 93.7693 109.742 94.8632 107.029 94.8642C104.317 94.8632 101.875 93.7693 100.096 91.9921C98.3192 90.2139 97.2241 87.7724 97.2241 85.0602C97.2241 82.348 98.3192 79.9065 100.096 78.1283C101.875 76.3511 104.316 75.2572 107.029 75.2562C109.742 75.2572 112.184 76.3511 113.962 78.1283C115.74 79.9065 116.834 82.348 116.835 85.0602H119.833C119.832 77.9904 114.1 72.2603 107.029 72.2593C99.9578 72.2603 94.2276 77.9904 94.2266 85.0602C94.2276 92.13 99.9578 97.8601 107.029 97.8611C114.101 97.8601 119.832 92.13 119.833 85.0602H118.334Z" fill="#BBC5CC"/>
<path fillRule="evenodd" clipRule="evenodd" d="M113.603 76.0212L97.6426 91.979L99.7618 94.0988L115.723 78.1411" fill="#BBC5CC"/>
<path fillRule="evenodd" clipRule="evenodd" d="M388.432 95.8142L380.245 87.3329H254.262C248.367 87.3329 243.588 82.5548 243.588 76.6608V11.1716C243.588 5.27764 248.367 0.499512 254.262 0.499512H380.811C386.706 0.499512 391.485 5.27764 391.485 11.1716V94.5815C391.485 96.1788 389.541 96.9631 388.432 95.8142Z" fill="#FFFFFE"/>
<path fillRule="evenodd" clipRule="evenodd" d="M388.433 95.8142L388.793 95.4676L380.607 86.9862C380.513 86.8883 380.382 86.8334 380.247 86.8334H254.264C251.453 86.8334 248.912 85.6955 247.07 83.8534C245.227 82.0113 244.089 79.4709 244.089 76.6607V11.1716C244.089 8.36047 245.227 5.82106 247.07 3.97794C248.912 2.13682 251.453 0.99898 254.264 0.99898H380.812C383.623 0.99898 386.164 2.13682 388.007 3.97794C389.849 5.82106 390.987 8.36047 390.987 11.1716V94.5814C390.985 94.98 390.832 95.2827 390.593 95.5075C390.355 95.7313 390.025 95.8621 389.697 95.8611C389.376 95.8592 389.065 95.7463 388.793 95.4676L388.074 96.1608C388.53 96.6364 389.127 96.8621 389.697 96.8601C390.283 96.8591 390.847 96.6364 391.275 96.2388C391.703 95.8432 391.988 95.2558 391.986 94.5814V11.1716C391.986 5.0009 386.983 0 380.812 0H254.264C248.093 0 243.09 5.0009 243.09 11.1716V76.6607C243.09 82.8304 248.093 87.8313 254.264 87.8323H380.035L388.074 96.1608L388.433 95.8142Z" fill="#BBC5CC"/>
<path fillRule="evenodd" clipRule="evenodd" d="M275.682 48.1258V42.4037C275.682 41.3268 275.721 39.8742 275.8 38.0451C275.878 36.217 275.94 35.257 275.985 35.167H275.616C274.852 36.8953 273.988 38.5106 273.023 40.0141L267.57 48.1258H275.682ZM294.231 58.0537H288.812V67.579H275.682V58.0537H256.057V48.2936L276.524 18.3722H288.812V48.1258H294.231V58.0537Z" fill="#4410AD"/>
<path fillRule="evenodd" clipRule="evenodd" d="M312.927 43.043C312.927 48.6083 313.275 52.4334 313.971 54.5203C314.666 56.6071 315.834 57.6501 317.472 57.6501C319.132 57.6501 320.304 56.5732 320.99 54.4194C321.673 52.2656 322.016 48.4734 322.016 43.043C322.016 37.5906 321.668 33.7705 320.973 31.5827C320.277 29.3949 319.109 28.301 317.472 28.301C315.834 28.301 314.666 29.356 313.971 31.4648C313.275 33.5747 312.927 37.4337 312.927 43.043ZM335.247 43.043C335.247 51.7491 333.787 58.1276 330.871 62.1775C327.953 66.2273 323.486 68.2523 317.472 68.2523C311.592 68.2523 307.159 66.1374 304.175 61.9077C301.19 57.6791 299.697 51.3905 299.697 43.043C299.697 34.2919 301.156 27.8755 304.074 23.7916C306.99 19.7078 311.458 17.6659 317.472 17.6659C323.33 17.6659 327.756 19.7917 330.752 24.0434C333.748 28.296 335.247 34.6286 335.247 43.043Z" fill="#4410AD"/>
<path fillRule="evenodd" clipRule="evenodd" d="M360.471 48.1258V42.4037C360.471 41.3268 360.51 39.8742 360.589 38.0451C360.666 36.217 360.727 35.257 360.772 35.167H360.403C359.639 36.8953 358.775 38.5106 357.81 40.0141L352.356 48.1258H360.471ZM379.018 58.0537H373.599V67.579H360.471V58.0537H340.844V48.2936L361.311 18.3722H373.599V48.1258H379.018V58.0537Z" fill="#4410AD"/>
<path fillRule="evenodd" clipRule="evenodd" d="M507.146 219.687V220.186H536.386C539.487 220.186 542 217.673 542 214.572V185.339C542 182.238 539.487 179.725 536.386 179.725H507.146C504.044 179.725 501.531 182.238 501.531 185.339V214.572C501.531 217.673 504.044 220.186 507.146 220.186V219.187C505.87 219.187 504.719 218.672 503.882 217.836C503.046 216.999 502.53 215.848 502.53 214.572V185.339C502.53 184.062 503.046 182.912 503.882 182.075C504.719 181.239 505.87 180.724 507.146 180.724H536.386C537.662 180.724 538.813 181.239 539.649 182.075C540.485 182.912 541.001 184.062 541.001 185.339V214.572C541.001 215.848 540.485 216.999 539.649 217.836C538.813 218.672 537.662 219.187 536.386 219.187H507.146V219.687Z" fill="#BBC5CC"/>
<path fillRule="evenodd" clipRule="evenodd" d="M510.193 209.301L533.34 209.293L521.76 189.255L510.193 209.301ZM534.488 211.038C534.338 211.091 534.18 211.118 534.016 211.118L509.519 211.127C509.007 211.128 508.53 210.852 508.274 210.409C508.018 209.967 508.018 209.416 508.274 208.973L520.516 187.757C520.771 187.314 521.244 187.039 521.758 187.038C522.27 187.038 522.746 187.313 523.003 187.756L535.26 208.964C535.515 209.406 535.515 209.957 535.26 210.4C535.086 210.702 534.809 210.926 534.488 211.038Z" fill="#BBC5CC"/>
<path fillRule="evenodd" clipRule="evenodd" d="M521.764 205.085C521.3 205.085 520.918 204.72 520.897 204.257L520.402 195.909C520.367 195.135 520.985 194.488 521.76 194.488C522.535 194.488 523.155 195.134 523.12 195.908L522.63 204.257C522.609 204.719 522.227 205.085 521.764 205.085Z" fill="#BBC5CC"/>
<path fillRule="evenodd" clipRule="evenodd" d="M522.649 207.098C522.649 207.586 522.254 207.981 521.766 207.981C521.279 207.982 520.883 207.586 520.883 207.099C520.883 206.611 521.279 206.216 521.766 206.216C522.254 206.216 522.649 206.61 522.649 207.098Z" fill="#BBC5CC"/>
<path fillRule="evenodd" clipRule="evenodd" d="M4.95292 149.173H4.45334C4.45134 150.126 3.67997 150.897 2.72675 150.899C1.77354 150.897 1.00118 150.126 0.999178 149.173C1.00118 148.22 1.77254 147.447 2.72675 147.446C3.67997 147.447 4.45134 148.22 4.45334 149.173H5.45251C5.45251 147.667 4.23251 146.448 2.72675 146.448C1.22099 146.448 0.000999178 147.667 0 149.173C0.000999178 150.678 1.22099 151.898 2.72675 151.898C4.23251 151.898 5.45251 150.678 5.45251 149.173H4.95292Z" fill="#BBC5CC"/>
<path fillRule="evenodd" clipRule="evenodd" d="M379.019 267.863H378.52C378.518 268.816 377.746 269.588 376.793 269.59C375.839 269.588 375.068 268.816 375.066 267.863C375.068 266.909 375.839 266.138 376.793 266.136C377.746 266.138 378.518 266.909 378.52 267.863H379.519C379.519 266.358 378.299 265.138 376.793 265.137C375.287 265.138 374.067 266.358 374.066 267.863C374.067 269.369 375.287 270.589 376.793 270.589C378.299 270.589 379.519 269.369 379.519 267.863H379.019Z" fill="#BBC5CC"/>
<path fillRule="evenodd" clipRule="evenodd" d="M532.019 85.0602H531.52C531.518 86.0132 530.746 86.7854 529.792 86.7864C528.839 86.7854 528.068 86.0132 528.066 85.0602C528.068 84.1072 528.839 83.3349 529.792 83.3339C530.746 83.3349 531.518 84.1072 531.52 85.0602H532.519C532.518 83.5547 531.298 82.335 529.792 82.335C528.286 82.335 527.066 83.5547 527.066 85.0602C527.066 86.5657 528.286 87.7854 529.792 87.7854C531.298 87.7854 532.518 86.5657 532.519 85.0602H532.019Z" fill="#BBC5CC"/>
<path fillRule="evenodd" clipRule="evenodd" d="M411.84 16.2104H411.34C411.338 17.1635 410.567 17.9357 409.613 17.9377C408.659 17.9357 407.888 17.1645 407.886 16.2104C407.888 15.2574 408.659 14.4862 409.613 14.4842C410.567 14.4862 411.338 15.2574 411.34 16.2104H412.339C412.338 14.705 411.118 13.4852 409.613 13.4852C408.107 13.4852 406.888 14.705 406.887 16.2104C406.888 17.7159 408.107 18.9357 409.613 18.9367C411.118 18.9357 412.338 17.7159 412.339 16.2104H411.84Z" fill="#BBC5CC"/>
<path fillRule="evenodd" clipRule="evenodd" d="M527.066 157.865V164.759C527.066 165.035 527.29 165.258 527.566 165.258C527.842 165.258 528.066 165.035 528.066 164.759V157.865C528.066 157.589 527.842 157.365 527.566 157.365C527.29 157.365 527.066 157.589 527.066 157.865Z" fill="#BBC5CC"/>
<path fillRule="evenodd" clipRule="evenodd" d="M531.013 160.813H524.119C523.843 160.813 523.619 161.036 523.619 161.312C523.619 161.588 523.843 161.812 524.119 161.812H531.013C531.289 161.812 531.513 161.588 531.513 161.312C531.513 161.036 531.289 160.813 531.013 160.813Z" fill="#BBC5CC"/>
<path fillRule="evenodd" clipRule="evenodd" d="M346.83 290.667V297.561C346.83 297.837 347.054 298.061 347.33 298.061C347.606 298.061 347.83 297.837 347.83 297.561V290.667C347.83 290.392 347.606 290.168 347.33 290.168C347.054 290.168 346.83 290.392 346.83 290.667Z" fill="#BBC5CC"/>
<path fillRule="evenodd" clipRule="evenodd" d="M350.776 293.614H343.88C343.605 293.614 343.381 293.838 343.381 294.114C343.381 294.39 343.605 294.613 343.88 294.613H350.776C351.052 294.613 351.275 294.39 351.275 294.114C351.275 293.838 351.052 293.614 350.776 293.614Z" fill="#BBC5CC"/>
<path fillRule="evenodd" clipRule="evenodd" d="M201.012 3.49644V10.3894C201.012 10.6651 201.235 10.8889 201.512 10.8889C201.788 10.8889 202.012 10.6651 202.012 10.3894V3.49644C202.012 3.22072 201.788 2.99695 201.512 2.99695C201.235 2.99695 201.012 3.22072 201.012 3.49644Z" fill="#BBC5CC"/>
<path fillRule="evenodd" clipRule="evenodd" d="M204.959 6.44336H198.064C197.788 6.44336 197.564 6.66713 197.564 6.94285C197.564 7.21857 197.788 7.44234 198.064 7.44234H204.959C205.235 7.44234 205.459 7.21857 205.459 6.94285C205.459 6.66713 205.235 6.44336 204.959 6.44336Z" fill="#BBC5CC"/>
<path fillRule="evenodd" clipRule="evenodd" d="M46.6719 70.1264V77.0194C46.6719 77.2951 46.8959 77.5189 47.1719 77.5189C47.4479 77.5189 47.6719 77.2951 47.6719 77.0194V70.1264C47.6719 69.8507 47.4479 69.627 47.1719 69.627C46.8959 69.627 46.6719 69.8507 46.6719 70.1264Z" fill="#BBC5CC"/>
<path fillRule="evenodd" clipRule="evenodd" d="M50.6205 73.0732H43.7262C43.4494 73.0732 43.2266 73.297 43.2266 73.5727C43.2266 73.8485 43.4494 74.0722 43.7262 74.0722H50.6205C50.8962 74.0722 51.1201 73.8485 51.1201 73.5727C51.1201 73.297 50.8962 73.0732 50.6205 73.0732Z" fill="#BBC5CC"/>
<path fillRule="evenodd" clipRule="evenodd" d="M35.4512 228.838V235.731C35.4512 236.007 35.6742 236.231 35.9512 236.231C36.2272 236.231 36.4512 236.007 36.4512 235.731V228.838C36.4512 228.562 36.2272 228.339 35.9512 228.339C35.6742 228.339 35.4512 228.562 35.4512 228.838Z" fill="#BBC5CC"/>
<path fillRule="evenodd" clipRule="evenodd" d="M39.3988 231.785H32.5035C32.2277 231.785 32.0039 232.009 32.0039 232.285C32.0039 232.561 32.2277 232.784 32.5035 232.784H39.3988C39.6746 232.784 39.8984 232.561 39.8984 232.285C39.8984 232.009 39.6746 231.785 39.3988 231.785Z" fill="#BBC5CC"/>
<path fillRule="evenodd" clipRule="evenodd" d="M426.279 42.5266V49.4196C426.279 49.6953 426.502 49.9191 426.779 49.9191C427.055 49.9191 427.279 49.6953 427.279 49.4196V42.5266C427.279 42.2499 427.055 42.0261 426.779 42.0261C426.502 42.0261 426.279 42.2499 426.279 42.5266Z" fill="#BBC5CC"/>
<path fillRule="evenodd" clipRule="evenodd" d="M430.227 45.4736H423.332C423.056 45.4736 422.832 45.6974 422.832 45.9731C422.832 46.2488 423.056 46.4726 423.332 46.4726H430.227C430.503 46.4726 430.727 46.2488 430.727 45.9731C430.727 45.6974 430.503 45.4736 430.227 45.4736Z" fill="#BBC5CC"/>
<path fillRule="evenodd" clipRule="evenodd" d="M87.2444 189.592V189.092H18.2511C17.3219 189.09 16.5695 188.338 16.5675 187.409C16.5695 186.48 17.3219 185.728 18.2511 185.727H87.2444C88.1736 185.728 88.926 186.48 88.928 187.409C88.926 188.338 88.1736 189.09 87.2444 189.092V190.09C88.7261 190.09 89.9262 188.89 89.9272 187.409C89.9262 185.927 88.7261 184.728 87.2444 184.728H18.2511C16.7694 184.728 15.5694 185.927 15.5684 187.409C15.5694 188.89 16.7694 190.09 18.2511 190.09H87.2444V189.592Z" fill="#BBC5CC"/>
<path fillRule="evenodd" clipRule="evenodd" d="M493.475 134.507V134.007H424.482C423.551 134.005 422.8 133.253 422.798 132.324C422.8 131.395 423.551 130.643 424.482 130.642H493.475C494.404 130.643 495.156 131.395 495.157 132.324C495.156 133.253 494.404 134.005 493.475 134.007V135.006C494.957 135.005 496.157 133.805 496.157 132.324C496.157 130.842 494.957 129.643 493.475 129.643H424.482C423 129.643 421.799 130.842 421.799 132.324C421.799 133.805 423 135.005 424.482 135.006H493.475V134.507Z" fill="#BBC5CC"/>
<path fillRule="evenodd" clipRule="evenodd" d="M503.574 149.173H478.07C477.467 149.173 476.979 148.684 476.979 148.082C476.979 147.479 477.467 146.99 478.07 146.99H503.574C504.176 146.99 504.665 147.479 504.665 148.082C504.665 148.684 504.176 149.173 503.574 149.173Z" fill="#BBC5CC"/>
<path fillRule="evenodd" clipRule="evenodd" d="M436.081 97.1908H410.577C409.975 97.1908 409.486 96.7023 409.486 96.0999C409.486 95.4966 409.975 95.0081 410.577 95.0081H436.081C436.684 95.0081 437.173 95.4966 437.173 96.0999C437.173 96.7023 436.684 97.1908 436.081 97.1908Z" fill="#BBC5CC"/>
<path fillRule="evenodd" clipRule="evenodd" d="M61.603 170.306H42.0931C41.4906 170.306 41.002 169.818 41.002 169.215C41.002 168.613 41.4906 168.124 42.0931 168.124H61.603C62.2055 168.124 62.6941 168.613 62.6941 169.215C62.6941 169.818 62.2055 170.306 61.603 170.306Z" fill="#BBC5CC"/>
<path fillRule="evenodd" clipRule="evenodd" d="M455.391 74.0264V74.5259H476.513C478.831 74.5259 480.708 72.6488 480.708 70.3322V49.2138C480.708 46.8971 478.831 45.02 476.513 45.019H455.391C453.074 45.02 451.196 46.8971 451.195 49.2138V70.3322C451.196 72.6488 453.074 74.5259 455.391 74.5259V73.527C453.626 73.524 452.198 72.0964 452.194 70.3322V49.2138C452.198 47.4496 453.626 46.021 455.391 46.018H476.513C478.278 46.021 479.706 47.4496 479.71 49.2138V70.3322C479.706 72.0964 478.278 73.524 476.513 73.527H455.391V74.0264Z" fill="#BBC5CC"/>
<path fillRule="evenodd" clipRule="evenodd" d="M464.182 61.0177H467.205L467.701 58.5692H464.679L464.182 61.0177ZM469.992 58.5692L469.495 61.0177H472.22V63.1925H469.083L468.271 67.4771H465.948L466.772 63.1925H463.772L462.969 67.4771H460.699L461.481 63.1925H458.969V61.0177H461.892L462.388 58.5692H459.729V56.3635H462.78L463.592 52.0688H465.904L465.092 56.3635H468.134L468.957 52.0688H471.227L470.403 56.3635H472.937V58.5692H469.992Z" fill="#BBC5CC"/>
<path fillRule="evenodd" clipRule="evenodd" d="M225.828 271.267L205.796 139.907H115.572L137.199 279.101C138.665 288.534 146.532 295.174 156.24 295.174H307.947L309.063 282.42H239C232.271 282.42 226.825 277.808 225.828 271.267Z" fill="#444F68"/>
<path fillRule="evenodd" clipRule="evenodd" d="M140.436 271.267L121.145 144.769C120.711 141.917 118.336 139.907 115.402 139.907H115.225C111.116 139.907 107.754 143.753 108.375 147.746L128.784 279.101C130.249 288.534 138.116 295.174 147.824 295.174H245.536L246.652 282.42H153.608C146.879 282.42 141.433 277.808 140.436 271.267Z" fill="#6C7384"/>
<path fillRule="evenodd" clipRule="evenodd" d="M200.762 366.878H202.26V295.174H200.762V366.878Z" fill="#4B423B"/>
<path fillRule="evenodd" clipRule="evenodd" d="M162.057 373.211C162.058 371.667 162.682 370.275 163.694 369.262C164.707 368.25 166.099 367.627 167.644 367.627H235.379C236.924 367.627 238.316 368.25 239.329 369.262C240.341 370.275 240.964 371.667 240.965 373.211H242.464C242.463 369.299 239.292 366.128 235.379 366.128H167.644C163.73 366.128 160.56 369.299 160.559 373.211H162.057Z" fill="#4B423B"/>
<path fillRule="evenodd" clipRule="evenodd" d="M195.329 373.211C195.329 371.667 195.952 370.275 196.964 369.262C197.978 368.25 199.37 367.627 200.914 367.627V366.128C197.001 366.128 193.83 369.299 193.83 373.211H195.329Z" fill="#4B423B"/>
<path fillRule="evenodd" clipRule="evenodd" d="M167.705 379.607C167.705 383.138 164.841 386.001 161.308 386.001C157.776 386.001 154.912 383.138 154.912 379.607C154.912 376.074 157.776 373.211 161.308 373.211C164.841 373.211 167.705 376.074 167.705 379.607Z" fill="#6C7384"/>
<path fillRule="evenodd" clipRule="evenodd" d="M161.308 381.955C160.011 381.955 158.959 380.903 158.959 379.607C158.959 378.309 160.011 377.257 161.308 377.257C162.606 377.257 163.658 378.309 163.658 379.607C163.658 380.903 162.606 381.955 161.308 381.955Z" fill="#788292"/>
<path fillRule="evenodd" clipRule="evenodd" d="M200.978 379.607C200.978 383.138 198.114 386.001 194.582 386.001C191.049 386.001 188.186 383.138 188.186 379.607C188.186 376.074 191.049 373.211 194.582 373.211C198.114 373.211 200.978 376.074 200.978 379.607Z" fill="#6C7384"/>
<path fillRule="evenodd" clipRule="evenodd" d="M194.581 381.955C193.283 381.955 192.23 380.903 192.23 379.607C192.23 378.309 193.283 377.257 194.581 377.257C195.877 377.257 196.93 378.309 196.93 379.607C196.93 380.903 195.877 381.955 194.581 381.955Z" fill="#788292"/>
<path fillRule="evenodd" clipRule="evenodd" d="M248.111 379.607C248.111 383.138 245.247 386.001 241.715 386.001C238.182 386.001 235.318 383.138 235.318 379.607C235.318 376.074 238.182 373.211 241.715 373.211C245.247 373.211 248.111 376.074 248.111 379.607Z" fill="#6C7384"/>
<path fillRule="evenodd" clipRule="evenodd" d="M241.715 381.955C240.417 381.955 239.365 380.903 239.365 379.607C239.365 378.309 240.417 377.257 241.715 377.257C243.012 377.257 244.064 378.309 244.064 379.607C244.064 380.903 243.012 381.955 241.715 381.955Z" fill="#788292"/>
<path fillRule="evenodd" clipRule="evenodd" d="M272.027 154.007L294.896 119.848L301.981 121.323C296.567 139.556 292.99 146.769 292.99 146.769" fill="#F5C6B4"/>
<path fillRule="evenodd" clipRule="evenodd" d="M298.336 126.978L301.981 121.323C301.981 121.323 308.766 119.762 311.231 118.504C313.696 117.245 315.341 115.015 316.027 113.132C316.554 111.687 316.325 107.445 315.708 107.377C314.249 107.218 311.339 112.652 309.977 112.975C308.615 113.298 304.197 112.963 301.768 113.28C297.678 113.815 295.953 117.646 295.953 117.646L292.215 124.425" fill="#F5C6B4"/>
<path fillRule="evenodd" clipRule="evenodd" d="M286.975 129.85L290.99 124.03L301.376 128.691L298.078 137.532" fill="#E6E7EA"/>
<path fillRule="evenodd" clipRule="evenodd" d="M203.543 117.674C203.543 117.674 220.474 109.886 235.389 123.149C250.302 136.414 260.394 148.738 265.87 152.726L288.337 126.885L300.888 132.776C297.579 151.491 288.291 181.338 265.564 184.41C240.974 187.734 204.918 157.432 204.918 157.432" fill="#4410AD"/>
<path fillRule="evenodd" clipRule="evenodd" d="M258.957 161.635L266.249 153.05L265.486 152.403L258.195 160.989" fill="#541DC4"/>
<path fillRule="evenodd" clipRule="evenodd" d="M294.5 375.199L292.601 382.498C292.14 384.271 293.479 386.001 295.311 386.001H317.433C318.764 386.001 319.842 384.923 319.842 383.593C319.842 382.544 319.164 381.617 318.165 381.299L303.046 375.199" fill="#28356F"/>
<path fillRule="evenodd" clipRule="evenodd" d="M281.748 261.175C278.216 298.288 294.498 375.199 294.498 375.199C294.498 375.199 298.368 379.874 303.044 375.199C303.044 375.199 306.966 301.868 311.099 268.898" fill="#F5C6B4"/>
<path fillRule="evenodd" clipRule="evenodd" d="M228.978 217.704L254.364 231.015V231.274C254.364 231.274 306.176 227.798 314.011 246.291C326.28 275.247 328.368 369.435 328.368 369.435H290.448C290.448 369.435 276.334 290.323 271.51 285.499C266.685 280.675 246.789 281.029 210.203 281.029C169.108 281.029 189.168 228.054 204.468 223.508" fill="#EE9C3B"/>
<path fillRule="evenodd" clipRule="evenodd" d="M293.568 369.367C293.568 369.363 290.751 348.951 286.896 327.781C284.967 317.195 282.781 306.422 280.555 297.906C279.441 293.646 278.318 289.952 277.205 287.117C276.648 285.698 276.095 284.495 275.538 283.536C274.98 282.577 274.428 281.858 273.815 281.411C271.473 279.73 267.468 278.73 262.57 278.098C257.676 277.474 251.9 277.249 246.098 277.249C230.942 277.25 215.613 278.782 215.604 278.783L215.703 279.777C215.705 279.777 216.657 279.683 218.326 279.539C223.336 279.109 234.78 278.248 246.098 278.248C251.874 278.248 257.617 278.473 262.444 279.089C267.268 279.699 271.186 280.731 273.229 282.22C273.652 282.522 274.158 283.142 274.674 284.037C275.649 285.714 276.681 288.335 277.717 291.608C281.349 303.077 285.072 322.57 287.877 339.172C289.281 347.474 290.456 355.059 291.281 360.566C291.693 363.32 292.018 365.555 292.239 367.1C292.46 368.647 292.578 369.501 292.579 369.504L293.568 369.367Z" fill="#BF642E"/>
<path fillRule="evenodd" clipRule="evenodd" d="M214.984 375.199L213.086 382.498C212.624 384.271 213.963 386.001 215.796 386.001H237.917C239.248 386.001 240.326 384.923 240.326 383.593C240.326 382.544 239.649 381.617 238.65 381.299L223.53 375.199" fill="#28356F"/>
<path fillRule="evenodd" clipRule="evenodd" d="M218.668 261.175C215.136 298.288 214.984 375.199 214.984 375.199C214.984 375.199 218.854 379.874 223.53 375.199C223.53 375.199 236.839 301.868 240.973 268.898" fill="#F5C6B4"/>
<path fillRule="evenodd" clipRule="evenodd" d="M184.197 229.359C184.197 229.359 250.793 230.432 259.505 250.606C270.218 275.416 252.559 369.435 252.559 369.435H212.417V285.323C212.417 283.69 211.142 282.228 209.512 282.272C203.952 282.42 191.548 282.42 175.798 282.42C134.703 282.42 154.764 218.475 170.064 213.93" fill="#F2AE4F"/>
<path fillRule="evenodd" clipRule="evenodd" d="M184.189 229.858C184.192 229.858 185.224 229.874 187.058 229.943C193.476 230.183 209.661 231.06 225.162 234.076C232.911 235.583 240.49 237.626 246.576 240.376C252.669 243.122 257.232 246.579 259.047 250.804C261.398 256.239 262.847 264.944 262.844 275.437C262.844 277.678 262.778 280.001 262.642 282.392L263.64 282.449C263.777 280.039 263.843 277.698 263.843 275.437C263.841 264.849 262.399 256.055 259.964 250.408C257.679 245.15 251.763 241.274 244.246 238.311C232.961 233.874 217.97 231.522 205.78 230.265C193.593 229.01 184.215 228.859 184.205 228.859L184.189 229.858Z" fill="#BF642E"/>
<path fillRule="evenodd" clipRule="evenodd" d="M218.515 369.438C218.515 369.438 218.55 362.04 218.55 351.506C218.55 338.979 218.5 322.016 218.278 307.786C218.168 300.67 218.015 294.238 217.804 289.38C217.698 286.95 217.578 284.914 217.441 283.379C217.372 282.611 217.299 281.967 217.22 281.457C217.138 280.942 217.062 280.576 216.943 280.29C216.223 278.595 214.985 277.48 213.285 276.86C211.585 276.234 209.434 276.044 206.712 276.042C201.367 276.043 193.793 276.799 183.237 276.799C173.747 276.792 167.488 273.647 163.541 268.8C159.597 263.949 157.965 257.321 157.966 250.326C157.964 242.347 160.089 233.909 163.22 227.196C164.784 223.84 166.6 220.915 168.51 218.695C170.42 216.473 172.426 214.97 174.326 214.408L174.042 213.45C171.865 214.101 169.742 215.735 167.753 218.043C161.802 224.974 156.976 238.091 156.967 250.326C156.968 257.469 158.624 264.329 162.766 269.429C166.907 274.533 173.533 277.804 183.237 277.798C193.836 277.797 201.455 277.04 206.712 277.041C209.386 277.04 211.442 277.241 212.939 277.798C214.435 278.36 215.386 279.218 216.025 280.685C216.076 280.796 216.162 281.136 216.233 281.61C216.513 283.409 216.742 287.245 216.918 292.307C217.451 307.509 217.551 333.895 217.551 351.506C217.551 356.772 217.542 361.253 217.533 364.419C217.525 367.584 217.516 369.428 217.516 369.433L218.515 369.438Z" fill="#DF7C2D"/>
<path fillRule="evenodd" clipRule="evenodd" d="M158.6 240.137C158.603 240.137 159.846 240.168 161.774 240.168C164.79 240.167 169.477 240.094 173.731 239.716C175.859 239.527 177.878 239.262 179.538 238.886C181.201 238.501 182.499 238.047 183.259 237.307C183.9 236.661 184.269 235.728 184.505 234.638C184.737 233.546 184.826 232.281 184.827 230.948C184.824 225.627 183.396 219.18 183.394 219.162L182.418 219.378C182.418 219.378 182.506 219.773 182.638 220.453C183.036 222.493 183.829 227.082 183.828 230.948C183.828 232.235 183.739 233.441 183.528 234.43C183.319 235.42 182.979 236.181 182.553 236.6C182.102 237.07 180.905 237.562 179.318 237.912C174.538 238.998 166.265 239.171 161.774 239.169C159.857 239.169 158.627 239.139 158.624 239.139L158.6 240.137Z" fill="#DF7C2D"/>
<path fillRule="evenodd" clipRule="evenodd" d="M158.084 242.968C158.087 242.968 159.245 242.993 161.093 242.997L161.095 241.998C159.255 241.994 158.109 241.969 158.106 241.969L158.084 242.968ZM163.097 242.994C164.02 242.989 165.033 242.978 166.105 242.958L166.086 241.959C165.019 241.979 164.01 241.99 163.091 241.995L163.097 242.994ZM168.111 242.911C169.091 242.883 170.101 242.847 171.118 242.801L171.073 241.803C170.062 241.849 169.058 241.885 168.083 241.912L168.111 242.911ZM173.124 242.697C174.138 242.638 175.147 242.566 176.13 242.483L176.045 241.487C175.072 241.57 174.072 241.641 173.065 241.7L173.124 242.697ZM178.134 242.286C179.197 242.167 180.207 242.03 181.136 241.869L180.967 240.885C180.062 241.041 179.071 241.176 178.024 241.293L178.134 242.286ZM183.132 241.456C184.406 241.131 185.411 240.758 186.079 240.225L185.449 239.449C185.011 239.812 184.096 240.188 182.889 240.487L183.132 241.456ZM187.316 238.36C187.646 237.469 187.822 236.421 187.902 235.286L186.906 235.217C186.831 236.289 186.661 237.255 186.379 238.012L187.316 238.36ZM187.947 233.244C187.928 232.246 187.857 231.219 187.755 230.21L186.76 230.312C186.86 231.299 186.93 232.299 186.948 233.263L187.947 233.244ZM187.51 228.206C187.358 227.128 187.184 226.111 187.016 225.224L186.035 225.409C186.2 226.284 186.371 227.286 186.521 228.346L187.51 228.206ZM186.615 223.249C186.439 222.438 186.317 221.953 186.316 221.948L185.347 222.192C185.347 222.192 185.376 222.308 185.427 222.526C185.478 222.745 185.552 223.062 185.639 223.462L186.615 223.249Z" fill="#DF7C2D"/>
<path fillRule="evenodd" clipRule="evenodd" d="M154.028 141.469C154.028 141.469 148.973 231.274 156.627 231.274C164.281 231.274 249.377 231.015 254.366 231.015C259.355 231.015 247.683 154.215 230.873 137.992C230.873 137.992 205.944 110.948 194.959 113.538C183.974 116.129 154.028 141.469 154.028 141.469Z" fill="#4410AD"/>
<path fillRule="evenodd" clipRule="evenodd" d="M249.448 182.199L238.881 138.892L237.91 139.129L248.477 182.436" fill="#541DC4"/>
<path fillRule="evenodd" clipRule="evenodd" d="M110.981 157.732L88.1115 123.573L81.0273 125.048C86.4409 143.281 90.0179 150.494 90.0179 150.494" fill="#F5C6B4"/>
<path fillRule="evenodd" clipRule="evenodd" d="M84.6702 130.704L81.0262 125.048C81.0262 125.048 74.2398 123.487 71.7748 122.229C69.3098 120.971 67.6652 118.74 66.9788 116.857C66.4522 115.412 66.681 111.171 67.2985 111.103C68.7573 110.943 71.6679 116.377 73.0298 116.7C74.3917 117.024 78.81 116.688 81.238 117.006C85.3287 117.54 87.0532 121.371 87.0532 121.371L90.7922 128.15" fill="#F5C6B4"/>
<path fillRule="evenodd" clipRule="evenodd" d="M96.034 133.576L92.0183 127.756L81.6328 132.416L84.9311 141.258" fill="#E6E7EA"/>
<path fillRule="evenodd" clipRule="evenodd" d="M185.474 118.187C185.474 118.187 168.741 106.289 151.459 120.902C135.353 134.519 124.624 162.002 121.022 162.002C118.522 162.002 103.026 142.243 93.7754 130.15L82.7715 136.03C89.7058 157.201 104.825 193.214 127.449 193.214C145.199 193.214 181.644 151.644 181.644 151.644" fill="#4410AD"/>
<path fillRule="evenodd" clipRule="evenodd" d="M152.889 180.302L179.861 157.816L179.221 157.049L152.25 179.535" fill="#541DC4"/>
<path fillRule="evenodd" clipRule="evenodd" d="M187.084 120.307L203.166 137.533L205.27 117.619" fill="#E6E7EA"/>
<path fillRule="evenodd" clipRule="evenodd" d="M186.717 120.648L202.799 137.873C202.932 138.016 203.136 138.068 203.322 138.006C203.508 137.944 203.64 137.779 203.661 137.584L205.765 117.671L204.771 117.566L202.782 136.392L187.447 119.966L186.717 120.648Z" fill="#7A6461"/>
<path fillRule="evenodd" clipRule="evenodd" d="M199.997 102.919L204.522 112.83C204.522 112.83 206.343 118.509 198.803 121.081C190.54 123.902 185.472 118.187 185.472 118.187L184.279 102.633" fill="#F5C6B4"/>
<path fillRule="evenodd" clipRule="evenodd" d="M185.038 112.522C185.038 112.522 190.99 119.979 198.804 121.081L193.128 129.501C188.528 126.911 182.906 116.86 182.906 116.86L185.038 112.522Z" fill="#FFFFFE"/>
<path fillRule="evenodd" clipRule="evenodd" d="M204.048 111.47C204.048 111.47 203.094 116.793 198.805 121.081L205.27 125.967C206.756 122.311 206.585 116.618 206.585 116.618L204.048 111.47Z" fill="#FFFFFE"/>
<path fillRule="evenodd" clipRule="evenodd" d="M206.701 86.9145C206.701 86.9145 210.971 103.261 204.56 107.393C198.15 111.524 186.998 105.238 186.355 103.187C185.713 101.135 182.799 83.6828 186.982 82.3741C194.416 80.0475 204.519 79.9456 206.701 86.9145Z" fill="#F5C6B4"/>
<path fillRule="evenodd" clipRule="evenodd" d="M206.564 92.2177C206.669 92.6663 206.391 93.1148 205.942 93.2197C205.495 93.3246 205.045 93.0469 204.94 92.5983C204.835 92.1508 205.113 91.7013 205.562 91.5964C206.01 91.4915 206.459 91.7692 206.564 92.2177Z" fill="#28356F"/>
<path fillRule="evenodd" clipRule="evenodd" d="M205.136 87.3458C205.418 87.3868 206.673 87.5167 206.407 88.137C206.29 88.4118 205.849 88.4048 205.607 88.3908C205.351 88.3768 205.085 88.3378 204.849 88.4237C204.915 88.4967 204.969 88.5846 205.008 88.6785C205.083 88.8633 204.465 88.8833 204.396 88.8833C203.781 88.8843 203.036 88.7694 202.287 89.2719C202.771 87.5017 204.677 87.2789 205.136 87.3458Z" fill="#28356F"/>
<path fillRule="evenodd" clipRule="evenodd" d="M196.288 94.4796C196.313 94.9401 196.707 95.2917 197.167 95.2657C197.627 95.2408 197.979 94.8472 197.953 94.3876C197.928 93.9281 197.534 93.5755 197.075 93.6014C196.615 93.6274 196.262 94.02 196.288 94.4796Z" fill="#28356F"/>
<path fillRule="evenodd" clipRule="evenodd" d="M193.817 91.179C193.216 91.5027 192.713 91.9412 192.848 92.4417C192.956 92.8423 193.351 92.7374 193.596 92.5436C194.001 92.2209 194.466 91.9732 194.96 91.8143C194.74 91.9942 194.613 92.2809 194.628 92.5646C196.186 92.4107 197.542 91.0681 197.711 89.5127C197.699 89.6246 196.691 90.2459 196.544 90.3139C195.665 90.7204 194.692 90.7085 193.817 91.179Z" fill="#28356F"/>
<path fillRule="evenodd" clipRule="evenodd" d="M201.946 93.3767C201.946 93.3777 202.046 93.6294 202.198 94.037C202.427 94.6484 202.769 95.6024 203.052 96.5404C203.337 97.4705 203.555 98.4135 203.55 98.8791C203.551 98.986 203.537 99.0619 203.53 99.0828L203.528 99.0878L203.717 99.1738L203.612 99.0029L203.528 99.0878L203.717 99.1738L203.612 99.0029C203.544 99.0479 203.349 99.1198 203.103 99.1698C202.357 99.3316 201.168 99.3616 200.582 99.3596C200.354 99.3596 200.217 99.3556 200.216 99.3566L200.191 100.355C200.195 100.355 200.343 100.359 200.582 100.359C200.993 100.359 201.67 100.348 202.34 100.287C202.674 100.256 203.007 100.212 203.311 100.147C203.617 100.08 203.889 100.002 204.136 99.8531C204.34 99.7262 204.437 99.5354 204.486 99.3746C204.535 99.2097 204.548 99.0489 204.549 98.8791C204.547 98.4065 204.435 97.8381 204.277 97.2108C203.802 95.3437 202.878 93.019 202.874 93.0081L201.946 93.3767Z" fill="#E59178"/>
<path fillRule="evenodd" clipRule="evenodd" d="M202.316 107.875L202.302 107.88C202.133 107.943 200.468 108.532 198.192 108.531C195.984 108.529 193.219 107.987 190.611 105.9L189.986 106.679C192.803 108.936 195.824 109.532 198.192 109.53C200.802 109.529 202.639 108.82 202.676 108.806L202.316 107.875Z" fill="#E59178"/>
<path fillRule="evenodd" clipRule="evenodd" d="M199.29 104.614L199.094 104.569L199.289 104.619L199.29 104.614L199.094 104.569L199.289 104.619C199.292 104.607 199.431 104.074 200.011 103.549C200.592 103.028 201.622 102.477 203.541 102.473V101.475C201.362 101.47 200.026 102.15 199.268 102.877C198.507 103.602 198.33 104.331 198.316 104.392L199.29 104.614Z" fill="#E59178"/>
<path fillRule="evenodd" clipRule="evenodd" d="M210.315 78.1391C210.249 77.3639 210.124 76.5357 209.59 75.9693C208.976 75.317 207.995 75.1891 207.1 75.1831C203.966 75.1591 200.832 76.1591 198.29 77.9922C198.987 77.3869 199.683 76.7815 200.382 76.1741C200.933 75.6936 202.168 74.9374 201.574 74.0413C201.05 73.2521 199.561 73.7006 198.803 73.6916C195.227 73.6467 191.774 74.9244 188.482 76.1861C186.859 76.8084 185.224 77.4408 183.756 78.3729C182.287 79.3049 180.98 80.5666 180.273 82.156C179.654 83.5486 179.529 85.109 179.54 86.6324C179.56 89.3716 179.989 92.0899 180.418 94.7951C180.886 97.7451 181.594 103.561 185.558 103.914C186.326 103.983 187.169 104.031 187.792 103.578C188.407 103.13 188.625 102.318 188.717 101.563C188.867 100.332 188.78 99.0767 188.484 97.8729C189.228 98.2755 189.929 98.9478 190.762 98.827C191.037 98.786 191.317 98.6342 191.416 98.3744C191.479 98.2096 191.46 98.0258 191.441 97.85C191.131 95.0249 190.961 92.2147 190.78 89.3776C194.837 88.5205 198.918 87.7812 203.017 87.1639C204.836 86.8892 206.761 86.5945 208.173 85.4157C210.191 83.7284 210.536 80.7604 210.315 78.1391Z" fill="#1C223A"/>
<path fillRule="evenodd" clipRule="evenodd" d="M189.357 98.966C188.682 97.3037 187.506 95.2998 185.664 96.4286C185.012 96.8272 184.649 97.6793 184.395 98.5045C183.551 101.25 185.52 105.482 188.216 105.092C189.53 104.9 190.258 103.342 190.794 102.056" fill="#F5C6B4"/>
<path fillRule="evenodd" clipRule="evenodd" d="M434.313 277.432C434.301 268.534 438.11 259.696 444.587 253.593C447.779 250.585 451.6 248.261 455.714 246.745C458.034 245.89 469.152 245.052 469.152 245.052C469.152 245.052 467.857 253.534 465.643 257.809C460.48 267.776 450.269 276.154 434.313 277.432Z" fill="#89B497"/>
<path fillRule="evenodd" clipRule="evenodd" d="M467.01 302.75C471.029 297.822 476.838 294.387 483.094 293.238C489.348 292.089 496 293.237 501.507 296.416C501.686 296.519 501.881 296.645 501.929 296.847C501.986 297.085 501.814 297.313 501.65 297.496C496.483 303.281 488.474 306.398 480.754 305.629C477.364 305.291 470.25 303.804 467.01 302.75Z" fill="#9DC6AC"/>
<path fillRule="evenodd" clipRule="evenodd" d="M475.943 289.22C475.951 281.462 478.531 274.498 483.086 269.941C487.641 265.383 494.133 263.269 501.063 264.088C501.288 264.114 501.541 264.159 501.723 264.365C501.938 264.611 501.949 264.963 501.937 265.258C501.542 274.599 496.857 282.332 489.713 285.436C486.576 286.798 479.45 288.759 475.943 289.22Z" fill="#89B497"/>
<path fillRule="evenodd" clipRule="evenodd" d="M487.99 275.344C491.064 270.393 494.803 265.856 499.076 261.896C500.795 260.302 502.615 258.792 504.68 257.683C511.362 254.093 519.607 255.205 526.793 257.636C523.936 263.063 520.208 268.375 514.725 271.126C512.299 272.343 509.637 273.001 506.989 273.591C501.731 274.761 493.332 274.648 487.99 275.344Z" fill="#9DC6AC"/>
<path fillRule="evenodd" clipRule="evenodd" d="M484.172 262.387C470.8 255.384 468.825 240.779 468.488 235.377C468.276 231.992 468.497 228.228 471.317 225.792C487.886 231.623 492.115 242.836 484.172 262.387Z" fill="#89B497"/>
<path fillRule="evenodd" clipRule="evenodd" d="M426.553 260.281C427.59 253.167 428.549 245.525 425.312 239.106C424.152 236.804 422.5 234.783 420.704 232.935C416.355 228.46 410.666 224.76 404.426 224.75C403.304 231.415 404.658 238.466 408.169 244.242C411.679 250.017 417.317 254.467 423.749 256.541" fill="#89B497"/>
<path fillRule="evenodd" clipRule="evenodd" d="M465.439 306.806C457.983 304.316 451.651 298.642 448.36 291.506C445.068 284.369 444.866 275.87 447.812 268.584C447.943 268.261 448.116 267.906 448.448 267.799C448.762 267.698 449.096 267.864 449.383 268.029C460.916 274.656 468.808 293.939 465.439 306.806Z" fill="#9DC6AC"/>
<path fillRule="evenodd" clipRule="evenodd" d="M434.099 267.518C431.946 261.296 432.06 254.318 434.416 248.171C436.771 242.023 441.35 236.754 447.109 233.564C449.456 232.264 452.009 231.284 454.091 229.592C454.796 232.717 455.271 235.896 455.508 239.092C455.744 242.253 455.742 245.477 454.903 248.533C452.734 256.434 445.45 261.806 438.134 265.495" fill="#9DC6AC"/>
<path fillRule="evenodd" clipRule="evenodd" d="M424.435 266.319C412.428 267.774 397.642 262.928 391.225 251.62C411.756 241.187 424.435 257.148 424.435 266.319Z" fill="#9DC6AC"/>
<path fillRule="evenodd" clipRule="evenodd" d="M431.442 293.106C428.75 283.886 421.663 276.324 413.127 273.561C404.591 270.797 394.849 272.912 387.947 279.026C387.66 279.28 387.352 279.604 387.379 280.005C387.395 280.244 387.528 280.451 387.661 280.641C392.25 287.275 399.572 291.193 407.059 292.844C414.547 294.495 422.278 294.101 429.901 293.53" fill="#9DC6AC"/>
<path fillRule="evenodd" clipRule="evenodd" d="M416.004 243.948C422.233 250.169 426.117 258.061 429.018 266.278C432.022 274.783 434.214 283.591 435.96 292.433C439.645 311.083 440.622 329.961 442.768 348.802C442.798 349.07 443.208 349.084 443.197 348.802C442.375 329.616 440.314 310.143 436.49 291.318C434.624 282.128 432.275 272.942 428.921 264.173C426.024 256.599 422.136 249.377 416.208 243.743C416.074 243.615 415.872 243.816 416.004 243.948Z" fill="#577865"/>
<path fillRule="evenodd" clipRule="evenodd" d="M438.085 300.84C433.477 293.376 425.83 288.964 417.895 285.739C409.021 282.133 398.958 279.871 389.335 280.52C389.101 280.535 389.098 280.875 389.335 280.886C406.845 281.668 426.885 285.907 437.661 301.089C437.841 301.342 438.254 301.114 438.085 300.84Z" fill="#577865"/>
<path fillRule="evenodd" clipRule="evenodd" d="M434.451 283.315C434.376 276.281 433.639 269.232 435.025 262.268C436.313 255.796 438.897 249.933 442.768 244.598C442.88 244.444 442.63 244.254 442.504 244.396C433.106 254.961 432.997 270.068 434.224 283.315C434.238 283.458 434.452 283.464 434.451 283.315Z" fill="#577865"/>
<path fillRule="evenodd" clipRule="evenodd" d="M406.588 255.481C411.727 256.119 416.267 259.571 420.15 262.759C424.02 265.936 427.474 269.587 431.33 272.769C431.486 272.898 431.704 272.692 431.556 272.544C427.668 268.656 423.496 264.889 419.146 261.526C415.492 258.701 411.318 255.816 406.588 255.38V255.481Z" fill="#577865"/>
<path fillRule="evenodd" clipRule="evenodd" d="M460.761 324.394C463.573 309.784 469.453 296.413 479.206 285.065C483.908 279.594 489.321 274.729 495.291 270.679C501.555 266.427 508.239 263.534 515.291 260.875C515.577 260.767 515.47 260.328 515.163 260.408C500.981 264.1 487.915 273.898 478.556 284.925C469.218 295.928 462.131 309.899 460.392 324.344C460.367 324.553 460.721 324.601 460.761 324.394Z" fill="#577865"/>
<path fillRule="evenodd" clipRule="evenodd" d="M477.001 237.103C484.028 251.89 486.629 268.657 479.515 283.871C479.375 284.172 479.79 284.429 479.966 284.135C488.504 269.925 484.366 250.8 477.357 236.894C477.237 236.655 476.888 236.865 477.001 237.103Z" fill="#577865"/>
<path fillRule="evenodd" clipRule="evenodd" d="M486.145 314.689V326.393C486.145 372.8 473.924 386.001 473.924 386.001H436.081C436.081 386.001 423.859 372.8 423.859 326.393V314.689H486.145Z" fill="#E0EBF1"/>
<path fillRule="evenodd" clipRule="evenodd" d="M80.5361 386.154L112.626 232.324L111.159 232.017L79.0684 385.848" fill="#4B423B"/>
<path fillRule="evenodd" clipRule="evenodd" d="M144.713 385.848L112.623 232.017L111.156 232.324L143.246 386.154" fill="#4B423B"/>
<path fillRule="evenodd" clipRule="evenodd" d="M404.642 386.154L436.731 232.324L435.264 232.017L403.174 385.848" fill="#4B423B"/>
<path fillRule="evenodd" clipRule="evenodd" d="M468.821 385.848L436.73 232.017L435.264 232.324L467.353 386.154" fill="#4B423B"/>
<path fillRule="evenodd" clipRule="evenodd" d="M80.8398 232.17H464.147V222.967H80.8398V232.17Z" fill="#E7EAED"/>
<path fillRule="evenodd" clipRule="evenodd" d="M445.673 205.423H310.219C307.802 205.423 305.972 203.241 306.395 200.861L321.959 113.337C322.452 110.564 324.863 108.544 327.679 108.544H463.134C465.551 108.544 467.38 110.728 466.958 113.107L451.394 200.631C450.9 203.403 448.49 205.423 445.673 205.423Z" fill="#444F68"/>
<path fillRule="evenodd" clipRule="evenodd" d="M448.821 205.423H313.366C310.949 205.423 309.12 203.241 309.544 200.861L325.107 113.337C325.6 110.564 328.011 108.544 330.827 108.544H466.282C468.699 108.544 470.528 110.728 470.105 113.107L454.541 200.631C454.049 203.403 451.638 205.423 448.821 205.423Z" fill="#BBC5CC"/>
<mask id="mask0_803_292" style="mask-type:luminance" maskUnits="userSpaceOnUse" x="343" y="149" width="94" height="57">
<path d="M423.902 205.423H345.667C344.272 205.423 343.214 204.163 343.459 202.788L352.448 152.237C352.733 150.635 354.125 149.469 355.752 149.469H433.987C435.383 149.469 436.439 150.73 436.195 152.104L427.205 202.655C426.921 204.257 425.529 205.423 423.902 205.423Z" fill="#A3B0B9"/>
</mask>
<g mask="url(#mask0_803_292)">
<path fillRule="evenodd" clipRule="evenodd" d="M343.215 205.423H436.439V149.469H343.215V205.423Z" fill="#A3B0B9"/>
</g>
<path fillRule="evenodd" clipRule="evenodd" d="M425.773 205.423H347.538C346.143 205.423 345.085 204.163 345.33 202.788L354.32 152.237C354.605 150.635 355.997 149.469 357.623 149.469H435.858C437.254 149.469 438.311 150.73 438.066 152.104L429.077 202.655C428.793 204.257 427.4 205.423 425.773 205.423Z" fill="#C3CED6"/>
<path fillRule="evenodd" clipRule="evenodd" d="M376.68 205.423H408.431V175.693H376.68V205.423Z" fill="#8795A3"/>
<path fillRule="evenodd" clipRule="evenodd" d="M398.928 209.093C395.37 209.093 391.608 204.944 390.526 199.825C389.444 194.707 391.451 190.558 395.009 190.558C398.568 190.558 402.33 194.707 403.412 199.825C404.494 204.944 402.487 209.093 398.928 209.093ZM406.613 175.693H376.68V184.233L384.852 218.138H416.622L406.613 175.693Z" fill="#444F68"/>
<path fillRule="evenodd" clipRule="evenodd" d="M359.17 218.138H430.296V222.967H354.34C354.34 220.3 356.502 218.138 359.17 218.138Z" fill="#444F68"/>
<path fillRule="evenodd" clipRule="evenodd" d="M373.434 222.967H430.297V218.138H373.434V222.967Z" fill="#BBC5CC"/>
<path fillRule="evenodd" clipRule="evenodd" d="M400.652 209.093C397.093 209.093 393.331 204.944 392.249 199.825C391.167 194.707 393.173 190.558 396.732 190.558C400.29 190.558 404.052 194.707 405.134 199.825C406.216 204.944 404.21 209.093 400.652 209.093ZM408.45 175.693H376.68L386.689 218.138H418.459L408.45 175.693Z" fill="#BBC5CC"/>
<path fillRule="evenodd" clipRule="evenodd" d="M334.261 127.745H332.381L334.261 117.164H336.143L334.261 127.745Z" fill="#99A6B2"/>
<path fillRule="evenodd" clipRule="evenodd" d="M339.708 127.745H337.826L339.708 117.164H341.589L339.708 127.745Z" fill="#99A6B2"/>
<path fillRule="evenodd" clipRule="evenodd" d="M345.151 127.745H343.27L345.151 117.164H347.032L345.151 127.745Z" fill="#99A6B2"/>
<path fillRule="evenodd" clipRule="evenodd" d="M350.598 127.745H348.717L350.598 117.164H352.48L350.598 127.745Z" fill="#99A6B2"/>
<path fillRule="evenodd" clipRule="evenodd" d="M356.044 127.745H354.162L356.044 117.164H357.925L356.044 127.745Z" fill="#99A6B2"/>
<path fillRule="evenodd" clipRule="evenodd" d="M405.733 127.745H403.852L405.733 117.164H407.613L405.733 127.745Z" fill="#99A6B2"/>
<path fillRule="evenodd" clipRule="evenodd" d="M411.454 127.745H409.572L411.454 117.164H413.334L411.454 127.745Z" fill="#99A6B2"/>
<path fillRule="evenodd" clipRule="evenodd" d="M417.176 127.745H415.295L417.176 117.164H419.058L417.176 127.745Z" fill="#99A6B2"/>
<path fillRule="evenodd" clipRule="evenodd" d="M422.899 127.745H421.018L422.899 117.164H424.78L422.899 127.745Z" fill="#99A6B2"/>
<path fillRule="evenodd" clipRule="evenodd" d="M428.622 127.745H426.74L428.622 117.164H430.503L428.622 127.745Z" fill="#99A6B2"/>
<path fillRule="evenodd" clipRule="evenodd" d="M434.344 127.745H432.463L434.344 117.164H436.226L434.344 127.745Z" fill="#99A6B2"/>
<path fillRule="evenodd" clipRule="evenodd" d="M440.065 127.745H438.184L440.065 117.164H441.946L440.065 127.745Z" fill="#99A6B2"/>
<path fillRule="evenodd" clipRule="evenodd" d="M445.788 127.745H443.906L445.788 117.164H447.669L445.788 127.745Z" fill="#99A6B2"/>
<path fillRule="evenodd" clipRule="evenodd" d="M451.512 127.745H449.631L451.512 117.164H453.394L451.512 127.745Z" fill="#99A6B2"/>
<path fillRule="evenodd" clipRule="evenodd" d="M457.233 127.745H455.352L457.233 117.164H459.114L457.233 127.745Z" fill="#99A6B2"/>
<path fillRule="evenodd" clipRule="evenodd" d="M236.072 222.966H347.262V220.99H236.072V222.966Z" fill="#444F68"/>
<path fillRule="evenodd" clipRule="evenodd" d="M239.873 220.991H247.841V219.397H239.873V220.991Z" fill="#444F68"/>
<path fillRule="evenodd" clipRule="evenodd" d="M251.936 220.991H259.903V219.397H251.936V220.991Z" fill="#444F68"/>
<path fillRule="evenodd" clipRule="evenodd" d="M263.998 220.991H271.965V219.397H263.998V220.991Z" fill="#444F68"/>
<path fillRule="evenodd" clipRule="evenodd" d="M276.059 220.991H284.027V219.397H276.059V220.991Z" fill="#444F68"/>
<path fillRule="evenodd" clipRule="evenodd" d="M288.119 220.991H296.088V219.397H288.119V220.991Z" fill="#444F68"/>
<path fillRule="evenodd" clipRule="evenodd" d="M300.182 220.991H308.15V219.397H300.182V220.991Z" fill="#444F68"/>
<path fillRule="evenodd" clipRule="evenodd" d="M312.242 220.991H320.21V219.397H312.242V220.991Z" fill="#444F68"/>
<path fillRule="evenodd" clipRule="evenodd" d="M324.303 220.991H332.271V219.397H324.303V220.991Z" fill="#444F68"/>
<path fillRule="evenodd" clipRule="evenodd" d="M336.363 220.991H344.332V219.397H336.363V220.991Z" fill="#444F68"/>
<path fillRule="evenodd" clipRule="evenodd" d="M237.527 222.966H348.716V220.99H237.527V222.966Z" fill="#BBC5CC"/>
<path fillRule="evenodd" clipRule="evenodd" d="M241.328 220.991H249.296V219.397H241.328V220.991Z" fill="#BBC5CC"/>
<path fillRule="evenodd" clipRule="evenodd" d="M253.391 220.991H261.359V219.397H253.391V220.991Z" fill="#BBC5CC"/>
<path fillRule="evenodd" clipRule="evenodd" d="M265.451 220.991H273.42V219.397H265.451V220.991Z" fill="#BBC5CC"/>
<path fillRule="evenodd" clipRule="evenodd" d="M277.512 220.991H285.48V219.397H277.512V220.991Z" fill="#BBC5CC"/>
<path fillRule="evenodd" clipRule="evenodd" d="M289.574 220.991H297.543V219.397H289.574V220.991Z" fill="#BBC5CC"/>
<path fillRule="evenodd" clipRule="evenodd" d="M301.637 220.991H309.605V219.397H301.637V220.991Z" fill="#BBC5CC"/>
<path fillRule="evenodd" clipRule="evenodd" d="M313.697 220.991H321.666V219.397H313.697V220.991Z" fill="#BBC5CC"/>
<path fillRule="evenodd" clipRule="evenodd" d="M325.758 220.991H333.726V219.397H325.758V220.991Z" fill="#BBC5CC"/>
<path fillRule="evenodd" clipRule="evenodd" d="M337.82 220.991H345.789V219.397H337.82V220.991Z" fill="#BBC5CC"/>
<path fillRule="evenodd" clipRule="evenodd" d="M79.311 297.539C80.6929 292.056 80.0784 286.092 77.6075 281.005C75.1375 275.919 70.829 271.749 65.6633 269.445C63.559 268.506 61.3019 267.857 59.3954 266.562C59.0227 269.289 58.8519 272.044 58.8849 274.797C58.9178 277.519 59.1576 280.279 60.1029 282.832C62.5438 289.433 69.1744 293.491 75.709 296.106" fill="#89B497"/>
<path fillRule="evenodd" clipRule="evenodd" d="M80.1121 315.238C80.314 302.465 80.4818 287.878 70.4301 278.365C70.2712 278.215 70.0534 278.44 70.1933 278.602C74.7006 283.84 77.9299 290.169 78.8901 297.063C79.7294 303.089 79.3927 309.188 79.8853 315.238C79.8973 315.381 80.1091 315.386 80.1121 315.238Z" fill="#577865"/>
<path fillRule="evenodd" clipRule="evenodd" d="M63.7781 331.991C62.8179 324.41 58.6094 317.294 52.4255 312.801C49.378 310.585 45.8689 309.022 42.1989 308.178C40.1286 307.702 30.5645 308.199 30.5645 308.199C30.5645 308.199 32.5928 315.286 34.9458 318.687C40.4303 326.616 50.0434 332.641 63.7781 331.991Z" fill="#89B497"/>
<path fillRule="evenodd" clipRule="evenodd" d="M55.4138 307.574C55.1661 302.985 54.3217 298.431 52.9119 294.074C52.3444 292.322 51.6799 290.587 50.7057 289.041C47.5503 284.03 41.6392 281.686 35.9549 280.655C35.8849 285.493 36.4395 290.578 39.0983 294.555C40.2743 296.314 41.812 297.775 43.3658 299.184C46.4502 301.981 52.1006 305.074 55.4138 307.574Z" fill="#9DC6AC"/>
<path fillRule="evenodd" clipRule="evenodd" d="M87.6927 290.864C86.8025 284.753 85.9781 278.19 88.7588 272.675C89.755 270.699 91.1739 268.962 92.7176 267.374C96.4525 263.531 101.339 260.353 106.699 260.344C107.662 266.068 106.499 272.126 103.485 277.087C100.469 282.048 93.2182 289.083 87.6927 290.864Z" fill="#9DC6AC"/>
<path fillRule="evenodd" clipRule="evenodd" d="M77.873 326.369C83.5574 327.547 89.7073 326.276 94.4584 322.941C99.2095 319.607 102.496 314.257 103.32 308.512C103.356 308.257 103.378 307.966 103.206 307.775C103.042 307.593 102.768 307.575 102.524 307.574C92.6989 307.524 80.4999 316.904 77.873 326.369Z" fill="#9DC6AC"/>
<path fillRule="evenodd" clipRule="evenodd" d="M57.6584 304.273C65.7537 299.718 70.9545 290.591 71.1073 280.675C65.2641 280.35 60.8658 283.945 58.3209 287.044C54.7768 291.358 54.478 298.939 57.6584 304.273Z" fill="#9DC6AC"/>
<path fillRule="evenodd" clipRule="evenodd" d="M63.541 320.279C61.3788 314.894 62.0582 308.46 65.2965 303.646C68.5359 298.832 74.2412 295.778 80.0444 295.751C80.2852 295.75 80.564 295.772 80.7038 295.969C80.7868 296.086 80.7978 296.238 80.8038 296.38C81.0266 301.352 78.8384 306.197 75.703 310.062C72.5675 313.927 68.5289 316.945 64.4782 319.837" fill="#9DC6AC"/>
<path fillRule="evenodd" clipRule="evenodd" d="M96.5635 276.645C85.7794 286.887 82.0055 303.308 79.1408 317.342C75.8316 333.552 73.9771 350.369 73.3654 366.9C73.3556 367.182 73.7633 367.167 73.7952 366.9C75.7327 350.717 76.496 334.49 79.6684 318.458C82.5001 304.154 86.1341 287.549 96.7683 276.848C96.8992 276.717 96.6984 276.517 96.5635 276.645Z" fill="#577865"/>
<path fillRule="evenodd" clipRule="evenodd" d="M63.5337 328.84C63.3609 323.987 64.1872 319.609 65.2823 314.912C65.3283 314.717 65.0465 314.578 64.9476 314.77C62.9143 318.69 62.3267 324.59 63.0511 328.906C63.0971 329.18 63.5437 329.115 63.5337 328.84Z" fill="#577865"/>
<path fillRule="evenodd" clipRule="evenodd" d="M64.2072 287.531C57.7376 293.394 56.0859 305.682 58.7277 313.645C58.7917 313.84 59.0825 313.761 59.0365 313.559C57.1231 305.243 57.7525 293.95 64.2792 287.602L64.2072 287.531Z" fill="#577865"/>
<path fillRule="evenodd" clipRule="evenodd" d="M66.5615 356.994C66.9152 345.723 65.0567 333.9 61.9523 323.091C58.8908 312.43 53.9918 300.868 45.8525 293.046C45.6227 292.825 45.318 293.151 45.5098 293.388C49.1388 297.876 52.512 302.313 55.1779 307.461C57.9006 312.719 59.9899 318.286 61.5946 323.98C64.6541 334.839 65.5164 345.797 66.1868 356.994C66.2018 357.234 66.5545 357.237 66.5615 356.994Z" fill="#577865"/>
<path fillRule="evenodd" clipRule="evenodd" d="M99.6221 337.355V345.339C99.6221 376.996 89.1247 386.001 89.1247 386.001H56.6185C56.6185 386.001 46.1211 376.996 46.1211 345.339V337.355H99.6221Z" fill="#E0EBF1"/>
<path fillRule="evenodd" clipRule="evenodd" d="M28.2695 387H538.296V385.002H28.2695V387Z" fill="#444F68"/>
</svg>
