<svg width="190" height="48" viewBox="0 0 190 48" fill="none" xmlns="http://www.w3.org/2000/svg">
<path d="M90.9177 20.834H85.7101C85.6149 20.1621 85.4208 19.5652 85.1275 19.0435C84.8342 18.5138 84.4577 18.0632 83.998 17.6917C83.5382 17.3202 83.0072 17.0356 82.4047 16.8379C81.8103 16.6403 81.1643 16.5415 80.4667 16.5415C79.2064 16.5415 78.1086 16.8538 77.1733 17.4783C76.238 18.0949 75.5127 18.9961 74.9975 20.1818C74.4823 21.3597 74.2247 22.7905 74.2247 24.4743C74.2247 26.2055 74.4823 27.6601 74.9975 28.838C75.5206 30.0158 76.2499 30.9051 77.1852 31.5059C78.1205 32.1067 79.2025 32.4071 80.4311 32.4071C81.1207 32.4071 81.7587 32.3162 82.3453 32.1344C82.9398 31.9526 83.4669 31.6878 83.9266 31.3399C84.3864 30.9842 84.7668 30.5534 85.068 30.0474C85.3772 29.5415 85.5912 28.9644 85.7101 28.3162L90.9177 28.3399C90.783 29.4546 90.4461 30.5297 89.9071 31.5652C89.376 32.5929 88.6587 33.5138 87.7551 34.3281C86.8594 35.1344 85.7893 35.7747 84.5449 36.249C83.3084 36.7154 81.9093 36.9486 80.3478 36.9486C78.176 36.9486 76.234 36.4585 74.5219 35.4783C72.8177 34.498 71.4702 33.0791 70.4794 31.2214C69.4966 29.3636 69.0051 27.1146 69.0051 24.4743C69.0051 21.8261 69.5045 19.5731 70.5032 17.7154C71.502 15.8577 72.8574 14.4427 74.5695 13.4704C76.2816 12.4901 78.2077 12 80.3478 12C81.7587 12 83.0666 12.1976 84.2714 12.5929C85.4842 12.9881 86.5582 13.5652 87.4935 14.3241C88.4288 15.0751 89.1898 15.9961 89.7763 17.087C90.3708 18.1779 90.7513 19.4269 90.9177 20.834Z" fill="#0B0B16"/>
<path d="M94.6095 36.6166V12.332H104.216C106.055 12.332 107.625 12.6601 108.925 13.3162C110.232 13.9644 111.227 14.8854 111.909 16.0791C112.598 17.2648 112.943 18.6601 112.943 20.2648C112.943 21.8775 112.595 23.2648 111.897 24.4269C111.199 25.581 110.189 26.4664 108.865 27.083C107.549 27.6996 105.956 28.0079 104.085 28.0079H97.6532V23.8814H103.253C104.236 23.8814 105.053 23.747 105.702 23.4783C106.352 23.2095 106.836 22.8063 107.153 22.2688C107.478 21.7312 107.64 21.0632 107.64 20.2648C107.64 19.4585 107.478 18.7787 107.153 18.2253C106.836 17.6719 106.348 17.253 105.691 16.9684C105.041 16.6759 104.22 16.5296 103.229 16.5296H99.7577V36.6166H94.6095ZM107.759 25.5652L113.811 36.6166H108.128L102.207 25.5652H107.759Z" fill="#0B0B16"/>
<path d="M116.581 12.332H122.931L129.636 28.6482H129.922L136.627 12.332H142.976V36.6166H137.983V20.8103H137.781L131.479 36.498H128.079L121.777 20.751H121.575V36.6166H116.581V12.332Z" fill="#0B0B16"/>
<path d="M145.696 36.6166L149.739 12.332H165.861L165.148 16.5652H154.174L153.222 22.3518H163.126L162.413 26.585H152.509L150.844 36.6166H145.696Z" fill="#0B0B16"/>
<path d="M173.985 12.332L177.504 20.6087H177.694L184.02 12.332H190L180.572 24.4743L186.124 36.6166H180.31L176.695 28.3281H176.505L170.132 36.6166H164.128L173.794 24.4743L168.313 12.332H173.985Z" fill="#0B0B16"/>
<path fillRule="evenodd" clipRule="evenodd" d="M6.12244 29.2929V41.8354L0 48V29.2929H6.12244Z" fill="#4410AD"/>
<path fillRule="evenodd" clipRule="evenodd" d="M15.6265 19.5268V32.266L9.4986 38.4361V19.5268H15.6265Z" fill="#4410AD"/>
<path fillRule="evenodd" clipRule="evenodd" d="M25.1248 9.76614V22.7021L19.0024 28.8667V9.76614H25.1248Z" fill="#4410AD"/>
<path fillRule="evenodd" clipRule="evenodd" d="M34.6288 0V13.1327L28.5063 19.2973V0H34.6288Z" fill="#4410AD"/>
<path fillRule="evenodd" clipRule="evenodd" d="M25.0597 43.311V47.7869H20.6144L25.0597 43.311Z" fill="#4410AD"/>
<path fillRule="evenodd" clipRule="evenodd" d="M34.5637 33.7415V47.7869H28.4359V39.9116L34.5637 33.7415Z" fill="#4410AD"/>
<path fillRule="evenodd" clipRule="evenodd" d="M44.062 24.1777V47.7869H37.9396V30.3423L44.062 24.1777Z" fill="#4410AD"/>
<path fillRule="evenodd" clipRule="evenodd" d="M55.8019 1.1312V14.4825C55.8019 15.9908 54.5861 17.215 53.088 17.215C51.59 17.215 50.3742 15.9908 50.3742 14.4825V11.2963L14.1334 47.7868H6.45868L47.3672 6.5963H42.542C41.0385 6.5963 39.8282 5.37212 39.8282 3.86375C39.8282 2.34991 41.0385 1.1312 42.542 1.1312H55.8019Z" fill="#4410AD"/>
</svg>
