<?xml version="1.0" encoding="UTF-8"?>
<!DOCTYPE svg PUBLIC "-//W3C//DTD SVG 1.1//EN" "http://www.w3.org/Graphics/SVG/1.1/DTD/svg11.dtd">
<svg xmlns="http://www.w3.org/2000/svg" version="1.1" width="355px" height="203px" style="shape-rendering:geometricPrecision; text-rendering:geometricPrecision; image-rendering:optimizeQuality; fill-rule:evenodd; clip-rule:evenodd" xmlns:xlink="http://www.w3.org/1999/xlink">
<g><path style="opacity:0.968" fill="#fefefe" d="M 208.5,15.5 C 208.667,27.5046 208.5,39.5046 208,51.5C 197.804,62.0301 187.304,72.1968 176.5,82C 165.172,82.4999 153.838,82.6665 142.5,82.5C 142.5,93.8333 142.5,105.167 142.5,116.5C 131.253,106.757 120.42,96.4237 110,85.5C 109.333,73.5 109.333,61.5 110,49.5C 120.702,38.6312 131.535,27.9646 142.5,17.5C 164.141,15.5108 186.141,14.8441 208.5,15.5 Z M 142.5,17.5 C 153.328,27.4946 163.661,37.9946 173.5,49C 163.172,49.4998 152.839,49.6665 142.5,49.5C 142.5,38.8333 142.5,28.1667 142.5,17.5 Z"/></g>
<g><path style="opacity:0.961" fill="#3ca8de" d="M 208.5,15.5 C 220.494,27.3274 232.661,38.9941 245,50.5C 245.833,72.5076 245.666,94.5076 244.5,116.5C 232.516,105.684 220.683,94.6836 209,83.5C 208.832,94.5151 208.332,105.515 207.5,116.5C 197.851,105.683 188.017,95.0165 178,84.5C 177.5,95.1615 177.333,105.828 177.5,116.5C 165.833,116.5 154.167,116.5 142.5,116.5C 142.5,105.167 142.5,93.8333 142.5,82.5C 153.838,82.6665 165.172,82.4999 176.5,82C 187.304,72.1968 197.804,62.0301 208,51.5C 208.5,39.5046 208.667,27.5046 208.5,15.5 Z M 208.5,52.5 C 219.838,52.3335 231.172,52.5001 242.5,53C 231.333,62.1667 220.167,71.3333 209,80.5C 208.5,71.1726 208.334,61.8393 208.5,52.5 Z"/></g>
<g><path style="opacity:0.86" fill="#fefffe" d="M 122.5,130.5 C 130.153,131.96 131.82,135.793 127.5,142C 120,143.833 117.167,141 119,133.5C 120.145,132.364 121.312,131.364 122.5,130.5 Z"/></g>
<g><path style="opacity:0.86" fill="#fefffe" d="M 271.5,130.5 C 279.153,131.96 280.82,135.793 276.5,142C 269,143.833 266.167,141 268,133.5C 269.145,132.364 270.312,131.364 271.5,130.5 Z"/></g>
<g><path style="opacity:0.94" fill="#fefffe" d="M 314.5,131.5 C 318.167,131.5 321.833,131.5 325.5,131.5C 325.5,146.5 325.5,161.5 325.5,176.5C 321.833,176.5 318.167,176.5 314.5,176.5C 314.5,161.5 314.5,146.5 314.5,131.5 Z"/></g>
<g><path style="opacity:0.956" fill="#3ca8de" d="M 4.5,133.5 C 12.1739,133.334 19.8406,133.5 27.5,134C 35.4551,139.274 37.6217,146.44 34,155.5C 29.1435,161.097 22.9769,163.43 15.5,162.5C 15.5,167.167 15.5,171.833 15.5,176.5C 11.8333,176.5 8.16667,176.5 4.5,176.5C 4.5,162.167 4.5,147.833 4.5,133.5 Z M 15.5,143.5 C 17.8568,143.337 20.1902,143.503 22.5,144C 25.1667,146.333 25.1667,148.667 22.5,151C 20.3225,152.202 17.9892,152.702 15.5,152.5C 15.5,149.5 15.5,146.5 15.5,143.5 Z"/></g>
<g><path style="opacity:0.958" fill="#3ca8de" d="M 38.5,133.5 C 42.5546,133.176 46.5546,133.509 50.5,134.5C 54.136,140.634 57.9694,146.634 62,152.5C 66.0306,146.634 69.864,140.634 73.5,134.5C 77.4454,133.509 81.4454,133.176 85.5,133.5C 85.5,147.833 85.5,162.167 85.5,176.5C 81.8333,176.5 78.1667,176.5 74.5,176.5C 74.6663,169.159 74.4997,161.826 74,154.5C 70.3093,160.501 66.3093,166.168 62,171.5C 57.6907,166.168 53.6907,160.501 50,154.5C 49.5003,161.826 49.3337,169.159 49.5,176.5C 45.8333,176.5 42.1667,176.5 38.5,176.5C 38.5,162.167 38.5,147.833 38.5,133.5 Z"/></g>
<g><path style="opacity:0.972" fill="#fefffe" d="M 90.5,133.5 C 98.8333,133.5 107.167,133.5 115.5,133.5C 115.5,136.833 115.5,140.167 115.5,143.5C 110.833,143.5 106.167,143.5 101.5,143.5C 101.5,145.5 101.5,147.5 101.5,149.5C 106.167,149.5 110.833,149.5 115.5,149.5C 115.5,152.833 115.5,156.167 115.5,159.5C 110.833,159.5 106.167,159.5 101.5,159.5C 101.5,165.167 101.5,170.833 101.5,176.5C 97.8333,176.5 94.1667,176.5 90.5,176.5C 90.5,162.167 90.5,147.833 90.5,133.5 Z"/></g>
<g><path style="opacity:0.938" fill="#fefffe" d="M 148.5,143.5 C 157.492,141.402 162.992,144.735 165,153.5C 165.5,161.159 165.666,168.826 165.5,176.5C 161.833,176.5 158.167,176.5 154.5,176.5C 154.666,170.491 154.499,164.491 154,158.5C 151,153.167 148,153.167 145,158.5C 144.501,164.491 144.334,170.491 144.5,176.5C 140.833,176.5 137.167,176.5 133.5,176.5C 133.5,165.833 133.5,155.167 133.5,144.5C 137.673,143.956 141.506,144.623 145,146.5C 146.145,145.364 147.312,144.364 148.5,143.5 Z"/></g>
<g><path style="opacity:0.925" fill="#fefffe" d="M 176.5,143.5 C 180.846,143.334 185.179,143.501 189.5,144C 192.102,144.883 194.269,146.383 196,148.5C 197.445,157.726 197.945,167.06 197.5,176.5C 193.649,177.029 190.149,176.362 187,174.5C 186.097,175.701 184.931,176.535 183.5,177C 171.953,179.442 166.787,174.942 168,163.5C 168.465,162.069 169.299,160.903 170.5,160C 175.807,158.394 181.141,156.894 186.5,155.5C 182.879,152.788 179.379,153.122 176,156.5C 173.252,154.542 170.418,152.709 167.5,151C 170.106,147.882 173.106,145.382 176.5,143.5 Z M 180.5,164.5 C 182.527,164.338 184.527,164.505 186.5,165C 184.836,168.136 182.169,169.303 178.5,168.5C 178.527,166.801 179.194,165.467 180.5,164.5 Z"/></g>
<g><path style="opacity:0.938" fill="#fefffe" d="M 215.5,143.5 C 224.492,141.402 229.992,144.735 232,153.5C 232.5,161.159 232.666,168.826 232.5,176.5C 228.833,176.5 225.167,176.5 221.5,176.5C 221.666,170.491 221.499,164.491 221,158.5C 218,153.167 215,153.167 212,158.5C 211.501,164.491 211.334,170.491 211.5,176.5C 207.833,176.5 204.167,176.5 200.5,176.5C 200.5,165.833 200.5,155.167 200.5,144.5C 204.673,143.956 208.506,144.623 212,146.5C 213.145,145.364 214.312,144.364 215.5,143.5 Z"/></g>
<g><path style="opacity:0.905" fill="#fefffe" d="M 244.5,143.5 C 253.444,141.566 260.777,144.066 266.5,151C 263.42,153.29 260.253,155.457 257,157.5C 253.685,153.895 250.018,153.561 246,156.5C 243.433,164.272 246.266,167.439 254.5,166C 255.333,165.167 256.167,164.333 257,163.5C 260.253,165.543 263.42,167.71 266.5,170C 259.135,177.984 250.468,179.651 240.5,175C 232.74,167.425 231.574,158.925 237,149.5C 239.114,146.879 241.614,144.879 244.5,143.5 Z"/></g>
<g><path style="opacity:0.925" fill="#fefffe" d="M 290.5,143.5 C 294.846,143.334 299.179,143.501 303.5,144C 306.102,144.883 308.269,146.383 310,148.5C 311.445,157.726 311.945,167.06 311.5,176.5C 307.649,177.029 304.149,176.362 301,174.5C 300.097,175.701 298.931,176.535 297.5,177C 285.953,179.442 280.787,174.942 282,163.5C 282.465,162.069 283.299,160.903 284.5,160C 289.807,158.394 295.141,156.894 300.5,155.5C 296.879,152.788 293.379,153.122 290,156.5C 287.252,154.542 284.418,152.709 281.5,151C 284.106,147.882 287.106,145.382 290.5,143.5 Z M 294.5,164.5 C 296.527,164.338 298.527,164.505 300.5,165C 298.836,168.136 296.169,169.303 292.5,168.5C 292.527,166.801 293.194,165.467 294.5,164.5 Z"/></g>
<g><path style="opacity:0.896" fill="#fefffe" d="M 354.5,162.5 C 354.5,165.5 354.5,168.5 354.5,171.5C 351.388,175.886 347.054,177.886 341.5,177.5C 335.909,177.916 331.242,176.083 327.5,172C 329.667,169.833 331.833,167.667 334,165.5C 337.183,168.671 340.683,169.171 344.5,167C 340.783,165.82 337.116,164.487 333.5,163C 327.737,157.897 327.07,152.23 331.5,146C 338.703,142.474 345.703,142.807 352.5,147C 353.451,147.718 353.617,148.551 353,149.5C 351.5,151 350,152.5 348.5,154C 346.243,154.112 344.076,153.612 342,152.5C 341.167,152.833 340.333,153.167 339.5,153.5C 345.638,154.851 350.638,157.851 354.5,162.5 Z"/></g>
<g><path style="opacity:0.952" fill="#fefffe" d="M 118.5,144.5 C 122.167,144.5 125.833,144.5 129.5,144.5C 129.5,155.167 129.5,165.833 129.5,176.5C 125.833,176.5 122.167,176.5 118.5,176.5C 118.5,165.833 118.5,155.167 118.5,144.5 Z"/></g>
<g><path style="opacity:0.952" fill="#fefffe" d="M 267.5,144.5 C 271.167,144.5 274.833,144.5 278.5,144.5C 278.5,155.167 278.5,165.833 278.5,176.5C 274.833,176.5 271.167,176.5 267.5,176.5C 267.5,165.833 267.5,155.167 267.5,144.5 Z"/></g>
</svg>
