<svg width="158" height="40" viewBox="0 0 158 40" fill="none" xmlns="http://www.w3.org/2000/svg">
<path d="M75.4513 17.3617H71.1126C71.0334 16.8017 70.8716 16.3044 70.6272 15.8696C70.3829 15.4282 70.0692 15.0527 69.6862 14.7431C69.3032 14.4335 68.8607 14.1963 68.3589 14.0316C67.8636 13.8669 67.3254 13.7846 66.7442 13.7846C65.6942 13.7846 64.7796 14.0448 64.0004 14.5652C63.2211 15.0791 62.6169 15.83 62.1876 16.8182C61.7584 17.7997 61.5438 18.9921 61.5438 20.3953C61.5438 21.838 61.7584 23.0501 62.1876 24.0316C62.6235 25.0132 63.231 25.7543 64.0103 26.2549C64.7895 26.7556 65.6909 27.0059 66.7145 27.0059C67.289 27.0059 67.8206 26.9302 68.3093 26.7787C68.8046 26.6271 69.2438 26.4065 69.6268 26.1166C70.0098 25.8202 70.3268 25.4611 70.5777 25.0395C70.8353 24.6179 71.0136 24.137 71.1126 23.5968L75.4513 23.6166C75.339 24.5455 75.0584 25.4414 74.6093 26.3044C74.1669 27.1607 73.5692 27.9282 72.8164 28.6067C72.0702 29.2787 71.1787 29.8123 70.1419 30.2075C69.1117 30.5962 67.9461 30.7905 66.6452 30.7905C64.8357 30.7905 63.2178 30.3821 61.7914 29.5652C60.3716 28.7484 59.249 27.5659 58.4235 26.0178C57.6046 24.4697 57.1952 22.5955 57.1952 20.3953C57.1952 18.1884 57.6112 16.3109 58.4433 14.7628C59.2754 13.2148 60.4046 12.0356 61.831 11.2253C63.2574 10.4084 64.8622 10 66.6452 10C67.8206 10 68.9103 10.1647 69.914 10.4941C70.9244 10.8235 71.8192 11.3043 72.5985 11.9368C73.3777 12.5626 74.0117 13.33 74.5004 14.2391C74.9956 15.1482 75.3126 16.1891 75.4513 17.3617Z" fill="white"/>
<path d="M78.527 30.5138V10.2767H86.5308C88.0628 10.2767 89.3704 10.5501 90.4534 11.0968C91.543 11.637 92.3718 12.4045 92.9397 13.3992C93.5142 14.3874 93.8015 15.5501 93.8015 16.8874C93.8015 18.2312 93.5109 19.3874 92.9298 20.3557C92.3487 21.3175 91.5067 22.0553 90.4039 22.5692C89.3076 23.083 87.9803 23.3399 86.4218 23.3399H81.0628V19.9012H85.7284C86.5473 19.9012 87.2275 19.7892 87.769 19.5652C88.3105 19.3412 88.7133 19.0053 88.9775 18.5573C89.2482 18.1094 89.3836 17.5527 89.3836 16.8874C89.3836 16.2154 89.2482 15.6489 88.9775 15.1878C88.7133 14.7266 88.3072 14.3775 87.7591 14.1403C87.2176 13.8966 86.5341 13.7747 85.7086 13.7747H82.8161V30.5138H78.527ZM89.4826 21.3044L94.5246 30.5138H89.7897L84.8567 21.3044H89.4826Z" fill="white"/>
<path d="M96.8326 10.2767H102.122L107.709 23.8735H107.947L113.534 10.2767H118.823V30.5138H114.663V17.3419H114.494L109.244 30.415H106.411L101.161 17.2925H100.993V30.5138H96.8326V10.2767Z" fill="white"/>
<path d="M121.089 30.5138L124.457 10.2767H137.889L137.295 13.8044H128.152L127.359 18.6265H135.611L135.016 22.1542H126.765L125.378 30.5138H121.089Z" fill="white"/>
<path d="M144.657 10.2767L147.589 17.1739H147.748L153.017 10.2767H158L150.145 20.3953L154.771 30.5138H149.927L146.916 23.6067H146.757L141.448 30.5138H136.445L144.499 20.3953L139.932 10.2767H144.657Z" fill="white"/>
<path fill-rule="evenodd" clip-rule="evenodd" d="M5.10081 24.4106V34.8627L0 39.9999V24.4106H5.10081Z" fill="white"/>
<path fill-rule="evenodd" clip-rule="evenodd" d="M13.019 16.2725V26.8884L7.91364 32.0302V16.2725H13.019Z" fill="white"/>
<path fill-rule="evenodd" clip-rule="evenodd" d="M20.9323 8.13843V18.9184L15.8315 24.0555V8.13843H20.9323Z" fill="white"/>
<path fill-rule="evenodd" clip-rule="evenodd" d="M28.8503 0V10.9439L23.7495 16.0811V0H28.8503Z" fill="white"/>
<path fill-rule="evenodd" clip-rule="evenodd" d="M20.8781 36.0925V39.8225H17.1746L20.8781 36.0925Z" fill="white"/>
<path fill-rule="evenodd" clip-rule="evenodd" d="M28.7962 28.1179V39.8224H23.6909V33.2597L28.7962 28.1179Z" fill="white"/>
<path fill-rule="evenodd" clip-rule="evenodd" d="M36.7095 20.1479V39.8223H31.6087V25.2851L36.7095 20.1479Z" fill="white"/>
<path fill-rule="evenodd" clip-rule="evenodd" d="M46.4904 0.942627V12.0687C46.4904 13.3256 45.4775 14.3458 44.2294 14.3458C42.9813 14.3458 41.9684 13.3256 41.9684 12.0687V9.41354L11.7751 39.8223H5.38095L39.4632 5.49688H35.4432C34.1906 5.49688 33.1822 4.47673 33.1822 3.21975C33.1822 1.95823 34.1906 0.942627 35.4432 0.942627H46.4904Z" fill="white"/>
</svg>
