<svg width="190" height="94" viewBox="0 0 190 94" fill="none" xmlns="http://www.w3.org/2000/svg">
<rect width="190" height="94" fill="white"/>
<path d="M76.2088 37.2747H67.7422C67.1628 37.2747 66.6701 37.6915 66.5797 38.258L63.1554 59.7594C63.0873 60.1836 63.4191 60.5661 63.8536 60.5661H67.8957C68.4751 60.5661 68.9678 60.1493 69.0582 59.5816L69.9817 53.7823C70.0708 53.2147 70.5648 52.7978 71.1429 52.7978H73.8232C79.4004 52.7978 82.6192 50.125 83.4598 44.8284C83.8386 42.5112 83.4759 40.6905 82.3803 39.4154C81.1769 38.0152 79.0426 37.2747 76.2088 37.2747ZM77.1856 45.1276C76.7226 48.1363 74.4014 48.1363 72.1569 48.1363H70.8792L71.7756 42.5173C71.8288 42.1777 72.1259 41.9276 72.4726 41.9276H73.0581C74.5871 41.9276 76.0293 41.9276 76.7746 42.7907C77.219 43.3057 77.3552 44.0707 77.1856 45.1276Z" fill="#253B80"/>
<path d="M101.517 45.0307H97.4629C97.1175 45.0307 96.8192 45.2808 96.766 45.6204L96.5864 46.7435L96.3029 46.3365C95.4252 45.0748 93.4679 44.6531 91.5144 44.6531C87.034 44.6531 83.2074 48.0137 82.4621 52.7279C82.0746 55.0795 82.6255 57.3281 83.9725 58.8962C85.208 60.3381 86.9759 60.9388 89.0792 60.9388C92.6892 60.9388 94.6911 58.64 94.6911 58.64L94.5103 59.7557C94.4422 60.1824 94.774 60.5649 95.2061 60.5649H98.8582C99.4388 60.5649 99.929 60.148 100.021 59.5804L102.212 45.8375C102.281 45.4145 101.951 45.0307 101.517 45.0307ZM95.8659 52.8456C95.4747 55.1396 93.6363 56.6795 91.2915 56.6795C90.1142 56.6795 89.1733 56.3056 88.5692 55.5969C87.97 54.8931 87.7422 53.8914 87.9328 52.7757C88.298 50.5014 90.1674 48.9112 92.4763 48.9112C93.6276 48.9112 94.5635 49.29 95.1801 50.0048C95.7978 50.727 96.043 51.7348 95.8659 52.8456Z" fill="#253B80"/>
<path d="M123.111 45.0308H119.037C118.648 45.0308 118.283 45.222 118.062 45.542L112.443 53.7395L110.061 45.862C109.911 45.3692 109.452 45.0308 108.932 45.0308H104.928C104.442 45.0308 104.104 45.5016 104.259 45.9552L108.746 58.998L104.527 64.8966C104.195 65.3613 104.53 66.0001 105.103 66.0001H109.172C109.558 66.0001 109.92 65.8137 110.139 65.4998L123.69 46.1281C124.015 45.6646 123.682 45.0308 123.111 45.0308Z" fill="#253B80"/>
<path d="M136.6 37.2747H128.133C127.554 37.2747 127.062 37.6915 126.971 38.258L123.547 59.7594C123.479 60.1836 123.811 60.5661 124.243 60.5661H128.588C128.992 60.5661 129.337 60.2743 129.4 59.8771L130.372 53.7823C130.461 53.2147 130.955 52.7978 131.533 52.7978H134.212C139.791 52.7978 143.008 50.125 143.85 44.8284C144.23 42.5112 143.865 40.6905 142.769 39.4154C141.567 38.0152 139.434 37.2747 136.6 37.2747ZM137.577 45.1276C137.115 48.1363 134.794 48.1363 132.548 48.1363H131.272L132.17 42.5173C132.223 42.1777 132.518 41.9276 132.865 41.9276H133.451C134.979 41.9276 136.422 41.9276 137.167 42.7907C137.612 43.3057 137.747 44.0707 137.577 45.1276Z" fill="#179BD7"/>
<path d="M161.907 45.0307H157.855C157.507 45.0307 157.211 45.2808 157.159 45.6204L156.979 46.7435L156.695 46.3365C155.817 45.0748 153.861 44.6531 151.907 44.6531C147.427 44.6531 143.602 48.0137 142.856 52.7279C142.47 55.0795 143.018 57.3281 144.365 58.8962C145.603 60.3381 147.369 60.9388 149.472 60.9388C153.082 60.9388 155.084 58.64 155.084 58.64L154.903 59.7557C154.835 60.1824 155.167 60.5649 155.601 60.5649H159.252C159.831 60.5649 160.323 60.148 160.414 59.5804L162.606 45.8375C162.673 45.4145 162.341 45.0307 161.907 45.0307ZM156.255 52.8456C155.866 55.1396 154.026 56.6795 151.681 56.6795C150.506 56.6795 149.563 56.3056 148.958 55.5969C148.359 54.8931 148.134 53.8914 148.322 52.7757C148.69 50.5014 150.557 48.9112 152.866 48.9112C154.017 48.9112 154.953 49.29 155.569 50.0048C156.19 50.727 156.435 51.7348 156.255 52.8456Z" fill="#179BD7"/>
<path d="M166.687 37.8644L163.212 59.7594C163.144 60.1836 163.476 60.5661 163.908 60.5661H167.401C167.982 60.5661 168.475 60.1493 168.564 59.5816L171.991 38.0814C172.059 37.6572 171.727 37.2734 171.295 37.2734H167.383C167.037 37.2747 166.74 37.5248 166.687 37.8644Z" fill="#179BD7"/>
<path d="M27.9953 64.7445L28.6427 60.6715L27.2005 60.6384H20.3135L25.0996 30.584C25.1144 30.4932 25.1627 30.4086 25.2333 30.3486C25.3038 30.2885 25.3942 30.2554 25.4883 30.2554H37.1007C40.9559 30.2554 43.6163 31.0499 45.0054 32.618C45.6566 33.3536 46.0713 34.1224 46.2718 34.9683C46.4823 35.856 46.486 36.9166 46.2805 38.2101L46.2656 38.3045V39.1333L46.9168 39.4986C47.4653 39.7868 47.901 40.1166 48.2353 40.4942C48.7924 41.1232 49.1527 41.9226 49.3049 42.8703C49.4622 43.845 49.4102 45.0049 49.1527 46.318C48.8555 47.8285 48.3752 49.1441 47.7265 50.2205C47.1298 51.2124 46.3696 52.0351 45.4671 52.6727C44.6055 53.2783 43.5817 53.7381 42.4241 54.0324C41.3025 54.3217 40.0237 54.4676 38.621 54.4676H37.7173C37.071 54.4676 36.4434 54.6981 35.9506 55.1113C35.4567 55.5331 35.1298 56.1093 35.0296 56.7395L34.9615 57.1061L33.8176 64.2847L33.7656 64.5483C33.752 64.6317 33.7284 64.6734 33.6938 64.7016C33.6628 64.7273 33.6182 64.7445 33.5749 64.7445H27.9953Z" fill="#253B80"/>
<path d="M47.5334 38.4001C47.4987 38.6196 47.4591 38.844 47.4145 39.0745C45.8831 46.8612 40.6439 49.5512 33.9525 49.5512H30.5456C29.7272 49.5512 29.0377 50.1397 28.9102 50.9391L27.1658 61.8951L26.6719 65.0008C26.5889 65.5255 26.9975 65.9988 27.5323 65.9988H33.5749C34.2905 65.9988 34.8984 65.4838 35.011 64.785L35.0704 64.4809L36.2082 57.3305L36.2812 56.9382C36.3926 56.2369 37.0017 55.7219 37.7173 55.7219H38.621C44.4755 55.7219 49.0586 53.3679 50.3981 46.5559C50.9577 43.7102 50.668 41.3341 49.1873 39.663C48.7392 39.1591 48.1833 38.741 47.5334 38.4001Z" fill="#179BD7"/>
<path d="M45.9314 37.7675C45.6974 37.7001 45.456 37.6388 45.2084 37.5836C44.9596 37.5297 44.7045 37.4818 44.4421 37.4402C43.5235 37.293 42.517 37.2231 41.4387 37.2231H32.3369C32.1129 37.2231 31.8999 37.2734 31.7093 37.3641C31.2896 37.564 30.9776 37.9576 30.9021 38.4394L28.9659 50.5848L28.9102 50.9391C29.0377 50.1397 29.7272 49.5512 30.5456 49.5512H33.9525C40.6439 49.5512 45.8831 46.86 47.4145 39.0745C47.4603 38.844 47.4987 38.6196 47.5334 38.4002C47.1459 38.1966 46.7262 38.0225 46.2743 37.8742C46.1629 37.8374 46.0478 37.8018 45.9314 37.7675Z" fill="#222D65"/>
<path d="M30.9021 38.4394C30.9776 37.9576 31.2896 37.564 31.7093 37.3654C31.9012 37.2747 32.1129 37.2244 32.3369 37.2244H41.4387C42.517 37.2244 43.5235 37.2943 44.4421 37.4414C44.7046 37.4831 44.9596 37.5309 45.2084 37.5849C45.456 37.6401 45.6974 37.7014 45.9314 37.7688C46.0478 37.8031 46.1629 37.8387 46.2756 37.8742C46.7274 38.0226 47.1471 38.1979 47.5346 38.4002C47.9902 35.5226 47.5309 33.5634 45.9599 31.7893C44.2279 29.8362 41.102 29 37.102 29H25.4896C24.6725 29 23.9755 29.5885 23.8492 30.3891L19.0124 60.7525C18.917 61.3533 19.385 61.8952 19.9966 61.8952H27.1658L28.9659 50.5848L30.9021 38.4394Z" fill="#253B80"/>
</svg>
