<svg width="190" height="94" viewBox="0 0 190 94" fill="none" xmlns="http://www.w3.org/2000/svg">
<rect width="190" height="94" fill="white"/>
<path d="M77.7294 26.0635C79.8517 26.0635 81.4988 26.5079 82.7342 27.3967C83.9378 28.2855 84.5397 29.6504 84.5714 31.4597C84.5714 32.3485 84.3813 33.2373 83.9695 34.0308C83.6211 34.7609 83.0193 35.364 82.2907 35.7132V35.8402C83.1143 36.2211 83.8111 36.8242 84.318 37.6177C84.6347 38.0939 84.8564 38.6017 85.0148 39.1414C85.2049 39.7762 85.2999 40.4745 85.2682 41.1411C85.2999 42.1569 85.0782 43.1409 84.6664 44.0297C84.2863 44.855 83.6844 45.5533 82.9876 46.093C82.259 46.6643 81.4355 47.077 80.5486 47.3309C79.63 47.6166 78.648 47.7436 77.6978 47.7436H66.1045V26H77.7294V26.0635ZM71.6794 34.0626H76.7792C77.4127 34.1261 78.0145 33.9356 78.4896 33.523C78.8064 33.1738 78.9965 32.6977 78.9648 32.2215C78.9648 31.7771 78.8064 31.3327 78.4896 30.9836C78.0145 30.5709 77.381 30.3805 76.7792 30.4439H71.6794V34.0626ZM71.6794 43.3949H76.8425C77.6344 43.4583 78.4263 43.2361 79.0281 42.7283C79.4716 42.2521 79.6933 41.649 79.6616 40.9824C79.725 40.2524 79.4399 39.554 78.9014 39.0779C78.2996 38.6335 77.5711 38.4113 76.8425 38.443H71.6794V43.3949Z" fill="#10ADA4"/>
<path d="M90.5587 47.8068H84.667L92.3325 26.095H98.0341L105.89 47.8068H99.6812L98.6359 44.0294H91.6356L90.5587 47.8068ZM95.1516 31.7769H95.0249L92.7759 39.8394H97.3689L95.1516 31.7769Z" fill="#10ADA4"/>
<path d="M112.415 34.9514H112.289V47.807H106.714V26.0635H112.891L120.271 38.1891H120.398V26.0635H125.973V47.807H120.366L112.415 34.9514Z" fill="#10ADA4"/>
<path d="M133.733 26.0632V33.6814L140.86 26.0632H148.208L139.466 34.348L148.715 47.8068H141.715L135.316 38.1571L133.701 39.7125V47.8068H128.126V26.0632H133.733Z" fill="#10ADA4"/>
<path d="M53.7197 51.1399V54.7903H49.9186V67.5825H45.8958V54.7903H42.0947V51.1399H53.7197Z" fill="#10ADA4"/>
<path d="M63.3812 51.1399C63.9513 51.1399 64.5532 51.2669 65.06 51.4891C65.5668 51.7113 66.0419 52.0604 66.3903 52.5048C66.7704 52.9492 67.0555 53.4571 67.2456 54.0285C67.4673 54.6316 67.5623 55.2664 67.5623 55.9013C67.594 56.8535 67.3406 57.7741 66.8655 58.5994C66.3903 59.3612 65.7252 59.9325 64.9333 60.3135L67.9108 67.5825H63.6346L61.1639 60.8848H57.933V67.5825H53.9102V51.1399H63.3812ZM62.1775 57.4566C62.5576 57.4884 62.9377 57.3297 63.1594 57.0122C63.3812 56.7266 63.4762 56.3774 63.4762 56.0282C63.4762 55.8695 63.4445 55.6791 63.4128 55.5203C63.3812 55.3616 63.2861 55.2029 63.1911 55.0442C63.0961 54.9172 62.9377 54.7903 62.7793 54.695C62.5893 54.5998 62.3992 54.5363 62.1775 54.5681H57.9646V57.4566H62.1775Z" fill="#10ADA4"/>
<path d="M71.1098 67.5825H66.8652L72.3768 51.1399H76.4946L82.1329 67.5825H77.6666L76.9064 64.7257H71.87L71.1098 67.5825ZM74.4357 55.4569H74.3723L72.7569 61.5514H76.0512L74.4357 55.4569Z" fill="#10ADA4"/>
<path d="M86.2506 57.8693H86.1556V67.5825H82.1328V51.1399H86.5674L91.8889 60.3135H91.9839V51.1399H96.0067V67.5825H91.9522L86.2506 57.8693Z" fill="#10ADA4"/>
<path d="M102.881 67.9952C101.994 68.0269 101.107 67.9 100.252 67.646C99.5547 67.4238 98.9212 67.1064 98.351 66.6937C97.8442 66.2811 97.4008 65.805 97.084 65.2019C96.7673 64.5987 96.5138 63.9639 96.3555 63.329L100.188 61.7737C100.22 62.599 100.537 63.3608 101.107 63.9322C101.709 64.44 102.469 64.694 103.229 64.6622C103.451 64.6622 103.673 64.6305 103.894 64.5987C104.116 64.567 104.306 64.5035 104.496 64.3765C104.686 64.2813 104.813 64.1226 104.94 63.9322C105.066 63.7417 105.13 63.4878 105.13 63.2656C105.13 63.0434 105.098 62.8212 105.035 62.599C104.94 62.3768 104.813 62.1863 104.654 62.0593C104.433 61.8689 104.179 61.7102 103.894 61.5832C103.482 61.3928 103.071 61.2658 102.659 61.1388C101.772 60.8849 100.917 60.5675 100.093 60.2183C99.428 59.9326 98.8262 59.5517 98.256 59.0756C97.7809 58.6629 97.4008 58.155 97.1474 57.5837C96.894 56.9488 96.7673 56.2822 96.7673 55.6156C96.7673 54.8856 96.9256 54.1555 97.2424 53.5206C97.5591 52.9175 98.0026 52.3779 98.5728 51.9653C99.1746 51.5209 99.8398 51.2034 100.568 51.013C101.392 50.7908 102.247 50.6956 103.102 50.6956C103.863 50.6956 104.654 50.759 105.383 50.9495C105.985 51.1082 106.555 51.3621 107.062 51.7113C107.537 52.0287 107.949 52.4414 108.265 52.9175C108.614 53.4571 108.867 53.9968 109.089 54.5999L105.636 56.1235C105.51 55.4887 105.193 54.9173 104.749 54.4729C103.799 53.8381 102.596 53.8063 101.614 54.3777C101.329 54.5999 101.17 54.9173 101.138 55.2665C101.138 55.4887 101.17 55.6791 101.265 55.8696C101.36 56.06 101.519 56.2505 101.709 56.3774C101.962 56.5679 102.247 56.7266 102.564 56.8218C103.039 57.0123 103.482 57.1393 103.958 57.2662C104.718 57.4884 105.478 57.7106 106.143 57.9328C106.777 58.155 107.379 58.4724 107.917 58.8851C108.424 59.2978 108.836 59.8056 109.121 60.377C109.437 61.1071 109.596 61.9324 109.564 62.7259C109.596 63.5195 109.406 64.2813 109.057 65.0114C108.709 65.6462 108.234 66.2176 107.632 66.6303C106.998 67.0747 106.27 67.4238 105.51 67.6143C104.623 67.9 103.736 68.0269 102.881 67.9952Z" fill="#10ADA4"/>
<path d="M113.872 57.2344H120.112V60.8848H113.872V67.5825H109.85V51.1399H122.013V54.7903H113.872V57.2344Z" fill="#10ADA4"/>
<path d="M122.329 51.1399H134.493V54.7903H126.352V57.0122H133.479V60.6626H126.352V63.9638H134.714V67.6142H122.329V51.1399Z" fill="#10ADA4"/>
<path d="M144.47 51.1399C145.04 51.1399 145.642 51.2669 146.149 51.4891C146.656 51.7113 147.131 52.0604 147.479 52.5048C147.859 52.9492 148.144 53.4571 148.334 54.0285C148.556 54.6316 148.651 55.2664 148.651 55.9013C148.683 56.8535 148.429 57.7741 147.954 58.5994C147.479 59.3612 146.814 59.9325 146.022 60.3135L149 67.5825H144.723L142.253 60.8848H139.022V67.5825H134.999V51.1399H144.47ZM143.266 57.4566C143.646 57.4884 144.027 57.3297 144.248 57.0122C144.47 56.7266 144.565 56.3774 144.565 56.0282C144.565 55.8695 144.533 55.6791 144.502 55.5203C144.47 55.3616 144.375 55.2029 144.28 55.0442C144.185 54.9172 144.027 54.7903 143.868 54.695C143.678 54.5998 143.488 54.5363 143.266 54.5681H139.054V57.4566H143.266Z" fill="#10ADA4"/>
<path d="M63.9512 26.0632H42V30.4754H63.9512V26.0632Z" fill="#10ADA4"/>
<path d="M63.9512 34.3484H42V38.7606H63.9512V34.3484Z" fill="#10ADA4"/>
<path d="M63.9512 43.4265H42V47.8387H63.9512V43.4265Z" fill="#10ADA4"/>
</svg>
