<svg width="190" height="94" viewBox="0 0 190 94" fill="none" xmlns="http://www.w3.org/2000/svg">
<rect width="190" height="94" fill="white"/>
<path d="M92.5803 47.7166V57.9686H89.2803V32.6143H97.8603C99.9503 32.6143 101.93 33.3859 103.47 34.819C105.01 36.1418 105.78 38.1261 105.78 40.2206C105.78 42.315 105.01 44.1891 103.47 45.6221C101.93 47.0552 100.06 47.8269 97.8603 47.8269L92.5803 47.7166ZM92.5803 35.7009V44.5198H98.0803C99.2903 44.5198 100.5 44.0788 101.27 43.1969C103.03 41.5434 103.03 38.7875 101.38 37.1339L101.27 37.0237C100.39 36.1418 99.2903 35.5906 98.0803 35.7009H92.5803Z" fill="#5F6368"/>
<path d="M113.37 40.1104C115.79 40.1104 117.66 40.7718 119.09 42.0946C120.52 43.4174 121.18 45.1812 121.18 47.3859V57.9686H118.1V55.5434H117.99C116.67 57.5277 114.8 58.5198 112.6 58.5198C110.73 58.5198 109.08 57.9686 107.76 56.8663C106.55 55.7639 105.78 54.2206 105.78 52.567C105.78 50.8033 106.44 49.3702 107.76 48.2678C109.08 47.1655 110.95 46.7245 113.15 46.7245C115.13 46.7245 116.67 47.0552 117.88 47.8269V47.0552C117.88 45.9529 117.44 44.8505 116.56 44.1891C115.68 43.4174 114.58 42.9765 113.37 42.9765C111.5 42.9765 110.07 43.7481 109.08 45.2915L106.22 43.5277C107.98 41.2127 110.29 40.1104 113.37 40.1104ZM109.19 52.6773C109.19 53.5592 109.63 54.3308 110.29 54.7718C111.06 55.323 111.94 55.6537 112.82 55.6537C114.14 55.6537 115.46 55.1025 116.45 54.1104C117.55 53.1182 118.1 51.9056 118.1 50.5828C117.11 49.8111 115.68 49.3702 113.81 49.3702C112.49 49.3702 111.39 49.7009 110.51 50.3623C109.63 50.9135 109.19 51.6852 109.19 52.6773Z" fill="#5F6368"/>
<path d="M139 40.6614L128.11 65.685H124.81L128.88 56.9763L121.73 40.7716H125.25L130.42 53.2283H130.53L135.59 40.7716H139V40.6614Z" fill="#5F6368"/>
<path d="M79.4895 45.5118C79.4895 44.5197 79.3795 43.5275 79.2695 42.5354H65.5195V48.1574H73.3295C72.9995 49.9212 72.0095 51.5748 70.4695 52.5669V56.2047H75.1995C77.9495 53.6693 79.4895 49.9212 79.4895 45.5118Z" fill="#4285F4"/>
<path d="M65.52 59.7323C69.48 59.7323 72.78 58.4095 75.2 56.2047L70.47 52.5669C69.15 53.4488 67.5 54 65.52 54C61.78 54 58.48 51.4646 57.38 47.937H52.54V51.685C55.07 56.6457 60.02 59.7323 65.52 59.7323Z" fill="#34A853"/>
<path d="M57.3802 47.937C56.7202 46.1732 56.7202 44.1889 57.3802 42.3149V38.5669H52.5402C50.4502 42.6456 50.4502 47.496 52.5402 51.685L57.3802 47.937Z" fill="#FBBC04"/>
<path d="M65.5204 36.3622C67.6104 36.3622 69.5904 37.1339 71.1304 38.567L75.3104 34.378C72.6704 31.9528 69.1504 30.5197 65.6304 30.63C60.1304 30.63 55.0704 33.7166 52.6504 38.6772L57.4904 42.4252C58.4804 38.8977 61.7804 36.3622 65.5204 36.3622Z" fill="#EA4335"/>
</svg>
