<svg width="79" height="25" viewBox="0 0 79 25" fill="none" xmlns="http://www.w3.org/2000/svg">
<path d="M14.6562 20.3438V24H3.20312V20.3438H14.6562ZM4.71875 1.25V24H0.03125V1.25H4.71875Z" fill="white"/>
<path d="M35 12.0938V13.1719C35 14.901 34.7656 16.4531 34.2969 17.8281C33.8281 19.2031 33.1667 20.375 32.3125 21.3438C31.4583 22.3021 30.4375 23.0365 29.25 23.5469C28.0729 24.0573 26.7656 24.3125 25.3281 24.3125C23.901 24.3125 22.5938 24.0573 21.4062 23.5469C20.2292 23.0365 19.2083 22.3021 18.3438 21.3438C17.4792 20.375 16.8073 19.2031 16.3281 17.8281C15.8594 16.4531 15.625 14.901 15.625 13.1719V12.0938C15.625 10.3542 15.8594 8.80208 16.3281 7.4375C16.7969 6.0625 17.4583 4.89062 18.3125 3.92188C19.1771 2.95312 20.1979 2.21354 21.375 1.70312C22.5625 1.19271 23.8698 0.9375 25.2969 0.9375C26.7344 0.9375 28.0417 1.19271 29.2188 1.70312C30.4062 2.21354 31.4271 2.95312 32.2812 3.92188C33.1458 4.89062 33.8125 6.0625 34.2812 7.4375C34.7604 8.80208 35 10.3542 35 12.0938ZM30.2656 13.1719V12.0625C30.2656 10.8542 30.1562 9.79167 29.9375 8.875C29.7188 7.95833 29.3958 7.1875 28.9688 6.5625C28.5417 5.9375 28.0208 5.46875 27.4062 5.15625C26.7917 4.83333 26.0885 4.67188 25.2969 4.67188C24.5052 4.67188 23.8021 4.83333 23.1875 5.15625C22.5833 5.46875 22.0677 5.9375 21.6406 6.5625C21.224 7.1875 20.9062 7.95833 20.6875 8.875C20.4688 9.79167 20.3594 10.8542 20.3594 12.0625V13.1719C20.3594 14.3698 20.4688 15.4323 20.6875 16.3594C20.9062 17.276 21.2292 18.0521 21.6562 18.6875C22.0833 19.3125 22.6042 19.7865 23.2188 20.1094C23.8333 20.4323 24.5365 20.5938 25.3281 20.5938C26.1198 20.5938 26.8229 20.4323 27.4375 20.1094C28.0521 19.7865 28.5677 19.3125 28.9844 18.6875C29.401 18.0521 29.7188 17.276 29.9375 16.3594C30.1562 15.4323 30.2656 14.3698 30.2656 13.1719Z" fill="white"/>
<path d="M56.4062 12.1094V21.125C56.0521 21.5521 55.5052 22.0156 54.7656 22.5156C54.026 23.0052 53.0729 23.4271 51.9062 23.7812C50.7396 24.1354 49.3281 24.3125 47.6719 24.3125C46.2031 24.3125 44.8646 24.0729 43.6562 23.5938C42.4479 23.1042 41.4062 22.3906 40.5312 21.4531C39.6667 20.5156 39 19.3698 38.5312 18.0156C38.0625 16.651 37.8281 15.0938 37.8281 13.3438V11.9219C37.8281 10.1719 38.0521 8.61458 38.5 7.25C38.9583 5.88542 39.6094 4.73438 40.4531 3.79688C41.2969 2.85938 42.3021 2.14583 43.4688 1.65625C44.6354 1.16667 45.9323 0.921875 47.3594 0.921875C49.3385 0.921875 50.9635 1.24479 52.2344 1.89062C53.5052 2.52604 54.474 3.41146 55.1406 4.54688C55.8177 5.67188 56.2344 6.96354 56.3906 8.42188H51.8438C51.7292 7.65104 51.5104 6.97917 51.1875 6.40625C50.8646 5.83333 50.401 5.38542 49.7969 5.0625C49.2031 4.73958 48.4323 4.57812 47.4844 4.57812C46.7031 4.57812 46.0052 4.73958 45.3906 5.0625C44.7865 5.375 44.276 5.83854 43.8594 6.45312C43.4427 7.06771 43.125 7.82812 42.9062 8.73438C42.6875 9.64062 42.5781 10.6927 42.5781 11.8906V13.3438C42.5781 14.5312 42.6927 15.5833 42.9219 16.5C43.151 17.4062 43.4896 18.1719 43.9375 18.7969C44.3958 19.4115 44.9583 19.875 45.625 20.1875C46.2917 20.5 47.0677 20.6562 47.9531 20.6562C48.6927 20.6562 49.3073 20.5938 49.7969 20.4688C50.2969 20.3438 50.6979 20.1927 51 20.0156C51.3125 19.8281 51.5521 19.651 51.7188 19.4844V15.4531H47.4375V12.1094H56.4062Z" fill="white"/>
<path d="M78.875 12.0938V13.1719C78.875 14.901 78.6406 16.4531 78.1719 17.8281C77.7031 19.2031 77.0417 20.375 76.1875 21.3438C75.3333 22.3021 74.3125 23.0365 73.125 23.5469C71.9479 24.0573 70.6406 24.3125 69.2031 24.3125C67.776 24.3125 66.4688 24.0573 65.2812 23.5469C64.1042 23.0365 63.0833 22.3021 62.2188 21.3438C61.3542 20.375 60.6823 19.2031 60.2031 17.8281C59.7344 16.4531 59.5 14.901 59.5 13.1719V12.0938C59.5 10.3542 59.7344 8.80208 60.2031 7.4375C60.6719 6.0625 61.3333 4.89062 62.1875 3.92188C63.0521 2.95312 64.0729 2.21354 65.25 1.70312C66.4375 1.19271 67.7448 0.9375 69.1719 0.9375C70.6094 0.9375 71.9167 1.19271 73.0938 1.70312C74.2812 2.21354 75.3021 2.95312 76.1562 3.92188C77.0208 4.89062 77.6875 6.0625 78.1562 7.4375C78.6354 8.80208 78.875 10.3542 78.875 12.0938ZM74.1406 13.1719V12.0625C74.1406 10.8542 74.0312 9.79167 73.8125 8.875C73.5938 7.95833 73.2708 7.1875 72.8438 6.5625C72.4167 5.9375 71.8958 5.46875 71.2812 5.15625C70.6667 4.83333 69.9635 4.67188 69.1719 4.67188C68.3802 4.67188 67.6771 4.83333 67.0625 5.15625C66.4583 5.46875 65.9427 5.9375 65.5156 6.5625C65.099 7.1875 64.7812 7.95833 64.5625 8.875C64.3438 9.79167 64.2344 10.8542 64.2344 12.0625V13.1719C64.2344 14.3698 64.3438 15.4323 64.5625 16.3594C64.7812 17.276 65.1042 18.0521 65.5312 18.6875C65.9583 19.3125 66.4792 19.7865 67.0938 20.1094C67.7083 20.4323 68.4115 20.5938 69.2031 20.5938C69.9948 20.5938 70.6979 20.4323 71.3125 20.1094C71.9271 19.7865 72.4427 19.3125 72.8594 18.6875C73.276 18.0521 73.5938 17.276 73.8125 16.3594C74.0312 15.4323 74.1406 14.3698 74.1406 13.1719Z" fill="white"/>
</svg>
