<svg width="190" height="94" viewBox="0 0 190 94" fill="none" xmlns="http://www.w3.org/2000/svg">
<rect width="190" height="94" fill="white"/>
<path d="M168.218 35.9761C166.281 34.6625 163.35 34.0001 159.507 34.0001H149.443L145.702 54.1047H132.519L133.366 49.5433H141.308L142.249 44.4203L134.312 44.4316L135.161 39.8906H143.341L144.43 34.0012H127.818L124.266 53.0717H118.17L121.746 34.0002H113.062L109.51 53.0707H103.571L107.151 34.0002H98.4714L94.7255 54.1048H81.4473L82.2867 49.5435H90.2601L91.2023 44.4495L83.2365 44.4416L84.0816 39.8917H92.3535L93.4349 33.9998H41.6688L38.7224 49.9312L32.8547 33.9998H23.8451L18.9961 59.9998H27.6003L30.5353 43.629L36.2292 59.9998H67.066L70.8153 39.8892H75.638L71.8888 59.9998H153.026L155.379 47.3052L159.184 59.9998H167.793L163.85 49.6267L164.752 49.4346C166.739 49.0129 168.289 48.1074 169.368 46.7498C170.446 45.3797 170.995 43.6207 170.995 41.5079C170.995 39.0481 170.086 37.2383 168.216 35.9746L168.218 35.9761ZM59.5785 54.1047H46.4077L47.2585 49.5433H55.5197L56.4562 44.4057H48.2745L49.0626 39.8919H62.2141L59.576 54.1046L59.5785 54.1047ZM161.125 45.347C160.259 45.9462 159.004 46.2378 157.287 46.2378H155.586L156.891 39.2606H158.143C159.568 39.2606 160.607 39.4867 161.324 39.9479C161.884 40.3096 162.55 41.0252 162.55 42.3783C162.548 44.0152 161.773 44.8947 161.122 45.3468L161.125 45.347Z" fill="#83BA3B"/>
</svg>
