<svg width="190" height="94" viewBox="0 0 190 94" fill="none" xmlns="http://www.w3.org/2000/svg">
<rect width="190" height="94" fill="white"/>
<path d="M129.448 30.9236L139.023 29.189V66.587H129.448V30.9236ZM143.425 30.9236V66.5663H153V29.189L143.425 30.9236ZM115.836 66.5663H125.411V39.2251H115.836V66.5663ZM52.5652 43.0867C51.348 43.0041 48.5486 42.8183 48.5486 40.2576C48.5486 37.16 52.5855 37.16 54.0866 37.16C56.744 37.16 60.1926 37.9654 62.6472 38.7088C62.6472 38.7088 64.0266 39.2044 65.1829 39.7001L65.2844 39.7207V31.254L65.1424 31.2127C62.2415 30.1802 58.8741 29.189 52.6058 29.189C41.8137 29.189 38 35.5906 38 41.063C38 44.2225 39.3389 51.6567 51.6929 52.524C52.7478 52.586 55.5269 52.7512 55.5269 55.4151C55.5269 57.604 53.2549 58.905 49.4209 58.905C45.2217 58.905 41.1646 57.8105 38.6897 56.778V65.5132C42.3817 66.5044 46.5606 67 51.4495 67C61.9981 67 66.7246 60.9494 66.7246 54.9401C66.7246 48.1255 61.4503 43.7062 52.5652 43.0867ZM110.44 38.8327C101.596 39.1218 97.1127 43.1693 97.1127 51.2024V66.587H106.769V54.0315C106.769 49.2199 107.377 47.1549 112.996 46.969V38.9566C112.023 38.7708 110.44 38.8327 110.44 38.8327ZM84.4747 39.2044C84.2718 39.7414 82.7301 44.1606 79.0178 48.7243V29.189L69.1387 31.1714V66.5663H79.0178V55.6216C81.8781 59.9995 83.2981 66.5663 83.2981 66.5663H95.1247C93.9481 61.6102 88.8361 52.4827 88.8361 52.4827C93.4207 46.556 95.4493 40.237 95.7739 39.1838H84.4747V39.2044ZM120.604 36.6025C123.2 36.6025 125.33 34.4548 125.33 31.8116C125.33 29.1683 123.221 27 120.604 27C118.007 27 115.897 29.1477 115.897 31.8116C115.897 34.4548 118.007 36.6025 120.604 36.6025Z" fill="url(#paint0_linear_711_277)"/>
<defs>
<linearGradient id="paint0_linear_711_277" x1="38.0203" y1="46.9871" x2="153.006" y2="46.9871" gradientUnits="userSpaceOnUse">
<stop stop-color="#872166"/>
<stop offset="1" stop-color="#4F2455"/>
</linearGradient>
</defs>
</svg>
