<svg width="190" height="94" viewBox="0 0 190 94" fill="none" xmlns="http://www.w3.org/2000/svg">
<rect width="190" height="94" fill="white"/>
<path fillRule="evenodd" clipRule="evenodd" d="M146 47.701C146 40.5234 142.487 34.8599 135.772 34.8599C129.028 34.8599 124.948 40.5234 124.948 47.6449C124.948 56.0842 129.765 60.3459 136.678 60.3459C140.05 60.3459 142.6 59.5888 144.527 58.5234V52.9159C142.6 53.8692 140.39 54.458 137.585 54.458C134.837 54.458 132.4 53.5047 132.088 50.1963H145.943C145.943 49.8318 146 48.3739 146 47.701ZM132.003 45.0374C132.003 41.8692 133.958 40.5515 135.743 40.5515C137.472 40.5515 139.313 41.8692 139.313 45.0374H132.003Z" fill="#635BFF"/>
<path fillRule="evenodd" clipRule="evenodd" d="M114.011 34.8599C111.235 34.8599 109.45 36.1496 108.458 37.0468L108.09 35.3085H101.856V68.0001L108.94 66.5141L108.968 58.5795C109.988 59.3085 111.49 60.3459 113.983 60.3459C119.055 60.3459 123.673 56.3085 123.673 47.4206C123.645 39.2898 118.97 34.8599 114.011 34.8599ZM112.311 54.1776C110.64 54.1776 109.648 53.5888 108.968 52.8599L108.94 42.458C109.676 41.6449 110.696 41.0842 112.311 41.0842C114.89 41.0842 116.675 43.944 116.675 47.6169C116.675 51.3739 114.918 54.1776 112.311 54.1776Z" fill="#635BFF"/>
<path fillRule="evenodd" clipRule="evenodd" d="M92.1094 33.2056L99.2211 31.6916V26L92.1094 27.486V33.2056Z" fill="#635BFF"/>
<path d="M99.2211 35.3362H92.1094V59.8689H99.2211V35.3362Z" fill="#635BFF"/>
<path fillRule="evenodd" clipRule="evenodd" d="M84.4874 37.411L84.0341 35.3362H77.9141V59.8689H84.9974V43.2427C86.6691 41.0839 89.5024 41.4764 90.3807 41.7848V35.3362C89.4741 34.9997 86.1591 34.3829 84.4874 37.411Z" fill="#635BFF"/>
<path fillRule="evenodd" clipRule="evenodd" d="M70.3216 29.2524L63.4082 30.7104L63.3799 53.1683C63.3799 57.3179 66.5249 60.3739 70.7182 60.3739C73.0416 60.3739 74.7416 59.9534 75.6766 59.4487V53.7571C74.7699 54.1216 70.2932 55.4113 70.2932 51.2618V41.3085H75.6766V35.3366H70.2932L70.3216 29.2524Z" fill="#635BFF"/>
<path fillRule="evenodd" clipRule="evenodd" d="M51.1683 42.458C51.1683 41.3645 52.075 40.944 53.5767 40.944C55.73 40.944 58.45 41.5888 60.6034 42.7384V36.1496C58.2517 35.2243 55.9284 34.8599 53.5767 34.8599C47.825 34.8599 44 37.8318 44 42.7944C44 50.5328 54.7667 49.2991 54.7667 52.6356C54.7667 53.9253 53.6333 54.3459 52.0467 54.3459C49.695 54.3459 46.6917 53.3926 44.3117 52.1029V58.7758C46.9467 59.8973 49.61 60.3739 52.0467 60.3739C57.94 60.3739 61.9917 57.486 61.9917 52.4673C61.9634 44.1122 51.1683 45.5982 51.1683 42.458Z" fill="#635BFF"/>
</svg>
